<?xml version="1.0" encoding="utf-8"?>
<!-- Generator: Adobe Illustrator 20.1.0, SVG Export Plug-In . SVG Version: 6.00 Build 0)  -->
<svg version="1.1" id="Layer_1" xmlns="http://www.w3.org/2000/svg" xmlns:xlink="http://www.w3.org/1999/xlink" x="0px" y="0px"
	 width="162.8px" height="238.1px" viewBox="0 0 162.8 238.1" style="enable-background:new 0 0 162.8 238.1;" xml:space="preserve"
	>
<style type="text/css">
	.st0{fill:#FFFFFF;stroke:#000000;stroke-miterlimit:10;}
	.st1{fill:none;}
	.st2{font-family:'MyriadPro-Regular';}
	.st3{font-size:18px;}
	.st4{font-size:15.0013px;}
	.st5{font-size:19.6683px;}
	.st6{font-size:11.1929px;}
	.st7{font-size:12.4788px;}
	.st8{fill:none;stroke:#000000;stroke-miterlimit:10;}
</style>
<circle class="st0" cx="77.5" cy="33" r="32.5"/>
<rect x="70.9" y="27" class="st1" width="39.2" height="31.3"/>
<text transform="matrix(1 0 0 1 70.8835 39.7856)" class="st2 st3">G</text>
<circle class="st0" cx="24.5" cy="103.8" r="24"/>
<rect x="19.3" y="98.1" class="st1" width="32.6" height="26.1"/>
<text transform="matrix(1 0 0 1 19.3273 108.7813)" class="st2 st4">R</text>
<circle class="st0" cx="66.9" cy="163.3" r="31.5"/>
<rect x="60.1" y="155.9" class="st1" width="42.8" height="34.2"/>
<text transform="matrix(1 0 0 1 60.1082 169.8892)" class="st2 st5">P</text>
<circle class="st0" cx="142.2" cy="134.8" r="17.9"/>
<rect x="138.5" y="130.6" class="st1" width="24.3" height="19.5"/>
<text transform="matrix(1 0 0 1 138.4742 138.5674)" class="st2 st6">A</text>
<circle class="st0" cx="127.8" cy="217.6" r="20"/>
<rect x="123.5" y="212.9" class="st1" width="27.1" height="21.7"/>
<text transform="matrix(1 0 0 1 123.503 221.7914)" class="st2 st7">H</text>
<line class="st8" x1="57.1" y1="58.3" x2="33.8" y2="81.6"/>
<line class="st8" x1="47.7" y1="109.9" x2="131" y2="120.8"/>
<line class="st8" x1="126.8" y1="143.9" x2="95.4" y2="150.1"/>
<line class="st8" x1="90.5" y1="184.1" x2="114.9" y2="202.4"/>
<line class="st8" x1="127.8" y1="197.6" x2="98.4" y2="58.3"/>
</svg>
