<?xml version="1.0" encoding="utf-8"?>
<!-- Generator: Adobe Illustrator 20.1.0, SVG Export Plug-In . SVG Version: 6.00 Build 0)  -->
<svg version="1.1" id="Layer_1" xmlns="http://www.w3.org/2000/svg" xmlns:xlink="http://www.w3.org/1999/xlink" x="0px" y="0px"
	 width="185.5px" height="49.6px" viewBox="0 0 185.5 49.6" style="enable-background:new 0 0 185.5 49.6;" xml:space="preserve">
<style type="text/css">
	.st0{fill:#93C47D;}
	.st1{fill:#FFFFFF;}
	.st2{fill:none;}
	.st3{enable-background:new    ;}
	.st4{font-family:'ArialMT';}
	.st5{font-size:12px;}
	.st6{fill:#FFD966;}
	.st7{font-family:'Verdana-Bold';}
	.st8{font-size:21px;}
	.st9{fill:#A44349;}
</style>
<g id="class">
	<g>
		<rect y="6" class="st0" width="180" height="43.6"/>
	</g>
	<g>
		<rect x="5.5" class="st1" width="180" height="43.6"/>
	</g>
</g>
<g>
	<g>
		<path id="SVGID_x5F_1_x5F_" class="st2" d="M-37.8,32.3h243.3"/>
		<text transform="matrix(1 0 0 1 -27.55 0)" class="st4 st5">  </text>
		<text transform="matrix(1 0 0 1 10.0658 32.3)" class="st4 st5"> </text>
		<text transform="matrix(1 0 0 1 13.3997 32.3)" class="st6 st7 st8">C</text>
		<text transform="matrix(1 0 0 1 28.596 32.3)" class="st6 st7 st8">l</text>
		<text transform="matrix(1 0 0 1 35.7738 32.3)" class="st6 st7 st8">a</text>
		<text transform="matrix(1 0 0 1 49.8011 32.3)" class="st6 st7 st8">s</text>
		<text transform="matrix(1 0 0 1 62.2596 32.3)" class="st6 st7 st8">s</text>
		<text transform="matrix(1 0 0 1 74.7181 32.3)" class="st6 st7 st8"> </text>
		<text transform="matrix(1 0 0 1 81.8958 32.3)" class="st6 st7 st8">o</text>
		<text transform="matrix(1 0 0 1 96.3128 32.3)" class="st6 st7 st8">f</text>
		<text transform="matrix(1 0 0 1 105.1824 32.3)" class="st6 st7 st8"> </text>
		<text transform="matrix(1 0 0 1 112.3602 32.3)" class="st6 st7 st8">2</text>
		<text transform="matrix(1 0 0 1 127.2899 32.3)" class="st6 st7 st8">0</text>
		<text transform="matrix(1 0 0 1 142.2195 32.3)" class="st6 st7 st8">1</text>
		<text transform="matrix(1 0 0 1 157.1492 32.3)" class="st6 st7 st8">9</text>
		<text transform="matrix(1 0 0 1 172.0789 32.3)" class="st4 st5"> </text>
		<text transform="matrix(1 0 0 1 175.4129 32.3)" class="st4 st5"> </text>
		<text transform="matrix(1 0 0 1 -27.55 0)" class="st4 st5"> </text>
	</g>
	<g>
		<path id="SVGID_x5F_2_x5F_" class="st2" d="M-35.8,31.3h243.3"/>
		<text transform="matrix(1 0 0 1 -27.55 0)" class="st4 st5">  </text>
		<text transform="matrix(1 0 0 1 12.0658 31.3)" class="st4 st5"> </text>
		<text transform="matrix(1 0 0 1 15.3997 31.3)" class="st9 st7 st8">C</text>
		<text transform="matrix(1 0 0 1 30.596 31.3)" class="st9 st7 st8">l</text>
		<text transform="matrix(1 0 0 1 37.7738 31.3)" class="st9 st7 st8">a</text>
		<text transform="matrix(1 0 0 1 51.8011 31.3)" class="st9 st7 st8">s</text>
		<text transform="matrix(1 0 0 1 64.2596 31.3)" class="st9 st7 st8">s</text>
		<text transform="matrix(1 0 0 1 76.7181 31.3)" class="st9 st7 st8"> </text>
		<text transform="matrix(1 0 0 1 83.8958 31.3)" class="st9 st7 st8">o</text>
		<text transform="matrix(1 0 0 1 98.3128 31.3)" class="st9 st7 st8">f</text>
		<text transform="matrix(1 0 0 1 107.1824 31.3)" class="st9 st7 st8"> </text>
		<text transform="matrix(1 0 0 1 114.3602 31.3)" class="st9 st7 st8">2</text>
		<text transform="matrix(1 0 0 1 129.2899 31.3)" class="st9 st7 st8">0</text>
		<text transform="matrix(1 0 0 1 144.2195 31.3)" class="st9 st7 st8">1</text>
		<text transform="matrix(1 0 0 1 159.1492 31.3)" class="st9 st7 st8">9</text>
		<text transform="matrix(1 0 0 1 174.0789 31.3)" class="st4 st5"> </text>
		<text transform="matrix(1 0 0 1 177.4129 31.3)" class="st4 st5"> </text>
		<text transform="matrix(1 0 0 1 -27.55 0)" class="st4 st5"> </text>
	</g>
</g>
</svg>
