<?xml version="1.0" encoding="utf-8"?>
<!-- Generator: Adobe Illustrator 20.1.0, SVG Export Plug-In . SVG Version: 6.00 Build 0)  -->
<svg version="1.1" id="Layer_1" xmlns="http://www.w3.org/2000/svg" xmlns:xlink="http://www.w3.org/1999/xlink" x="0px" y="0px"
	 width="286.8px" height="90.6px" viewBox="0 0 286.8 90.6" style="enable-background:new 0 0 286.8 90.6;" xml:space="preserve">
<style type="text/css">
	.st0{fill:#FFFFFF;}
	.st1{fill:#5E5681;}
	.st2{fill:none;}
	.st3{enable-background:new    ;}
	.st4{font-family:'ArialMT';}
	.st5{font-size:12px;}
	.st6{font-family:'Verdana-Bold';}
	.st7{font-size:24px;}
	.st8{fill:#FFCC67;}
</style>
<g id="berkArrow">
	<g>
		<polygon class="st0" points="280.2,47.3 253.5,4 253.5,27.8 18,27.8 18,65.8 253.5,65.8 253.5,90.6 		"/>
	</g>
	<g>
		<polygon class="st1" points="286.8,43.3 260.1,0 260.1,23.8 24.6,23.8 24.6,61.8 260.1,61.8 260.1,86.6 		"/>
	</g>
</g>
<g>
	<g>
		<path id="SVGID_x5F_1_x5F_" class="st2" d="M18,51.5h243.3"/>
		<text transform="matrix(1 0 0 1 -18.4448 0)" class="st4 st5">  </text>
		<text transform="matrix(1 0 0 1 65.771 51.5)" class="st4 st5"> </text>
		<text transform="matrix(1 0 0 1 69.1049 51.5)" class="st0 st6 st7">U</text>
		<text transform="matrix(1 0 0 1 88.5932 51.5)" class="st0 st6 st7">C</text>
		<text transform="matrix(1 0 0 1 105.9604 51.5)" class="st0 st6 st7"> </text>
		<text transform="matrix(1 0 0 1 114.1635 51.5)" class="st0 st6 st7">B</text>
		<text transform="matrix(1 0 0 1 132.4448 51.5)" class="st0 st6 st7">E</text>
		<text transform="matrix(1 0 0 1 148.8393 51.5)" class="st0 st6 st7">R</text>
		<text transform="matrix(1 0 0 1 167.6128 51.5)" class="st0 st6 st7">K</text>
		<text transform="matrix(1 0 0 1 186.1167 51.5)" class="st0 st6 st7">E</text>
		<text transform="matrix(1 0 0 1 202.5112 51.5)" class="st0 st6 st7">L</text>
		<text transform="matrix(1 0 0 1 217.8042 51.5)" class="st0 st6 st7">E</text>
		<text transform="matrix(1 0 0 1 234.1987 51.5)" class="st0 st6 st7">Y</text>
		<text transform="matrix(1 0 0 1 251.8823 51.5)" class="st4 st5"> </text>
		<text transform="matrix(1 0 0 1 255.2163 51.5)" class="st4 st5"> </text>
		<text transform="matrix(1 0 0 1 -18.4448 0)" class="st4 st5"> </text>
	</g>
	<g>
		<path id="SVGID_x5F_2_x5F_" class="st2" d="M20,51.5h243.3"/>
		<text transform="matrix(1 0 0 1 -18.4448 0)" class="st4 st5">  </text>
		<text transform="matrix(1 0 0 1 67.771 51.5)" class="st4 st5"> </text>
		<text transform="matrix(1 0 0 1 71.1049 51.5)" class="st8 st6 st7">U</text>
		<text transform="matrix(1 0 0 1 90.5932 51.5)" class="st8 st6 st7">C</text>
		<text transform="matrix(1 0 0 1 107.9604 51.5)" class="st8 st6 st7"> </text>
		<text transform="matrix(1 0 0 1 116.1635 51.5)" class="st8 st6 st7">B</text>
		<text transform="matrix(1 0 0 1 134.4448 51.5)" class="st8 st6 st7">E</text>
		<text transform="matrix(1 0 0 1 150.8393 51.5)" class="st8 st6 st7">R</text>
		<text transform="matrix(1 0 0 1 169.6128 51.5)" class="st8 st6 st7">K</text>
		<text transform="matrix(1 0 0 1 188.1167 51.5)" class="st8 st6 st7">E</text>
		<text transform="matrix(1 0 0 1 204.5112 51.5)" class="st8 st6 st7">L</text>
		<text transform="matrix(1 0 0 1 219.8042 51.5)" class="st8 st6 st7">E</text>
		<text transform="matrix(1 0 0 1 236.1987 51.5)" class="st8 st6 st7">Y</text>
		<text transform="matrix(1 0 0 1 253.8823 51.5)" class="st4 st5"> </text>
		<text transform="matrix(1 0 0 1 257.2163 51.5)" class="st4 st5"> </text>
		<text transform="matrix(1 0 0 1 -18.4448 0)" class="st4 st5"> </text>
	</g>
</g>
</svg>
