<svg id="Layer_1" data-name="Layer 1" xmlns="http://www.w3.org/2000/svg" viewBox="0 0 132.81 89.34"><defs><style>.cls-1{fill:#5b5a80;stroke:#a44349;stroke-miterlimit:10;stroke-width:6px;}</style></defs><title>dark_cloud_dark</title><path class="cls-1" d="M127.82,38.56c-3.16-6.4-10.4-9.5-19.29-8.36-2.22.28-4.73,3.72-6.6,2-1.6-1.44,1.12-3.8,1.13-5.64.05-8.16-6.49-17.16-15.33-20.71a40.49,40.49,0,0,0-28-.74C51,7.91,47.4,10.92,45,23.31c-.67,3.48-6.11-3.89-16.11-2.39-4.55.68-10.76,14-14.5,15-8,2.15-10,2.14-11.18,10.55C2.08,54.33,5.37,60.75,12,65.32a44.11,44.11,0,0,0,17.17,6.85c5.82,8.4,17.71,14.17,31.44,14.17,12.32,0,23.15-4.64,29.46-11.66A40.92,40.92,0,0,0,100.41,76c14.27,0,25.85-6.94,25.85-15.5a9.46,9.46,0,0,0-.12-1.47A20.39,20.39,0,0,0,127.82,38.56Z"/></svg>