<svg id="Layer_1" data-name="Layer 1" xmlns="http://www.w3.org/2000/svg" viewBox="0 0 200.22 133.64"><defs><style>.cls-1{fill:#5b5a80;stroke:#cd6666;stroke-miterlimit:10;stroke-width:6px;}.cls-2{fill:#cd6666;}</style></defs><title>dark_cloud_light</title><path class="cls-1" d="M194.16,57.46c-4.84-9.8-15.92-14.54-29.55-12.8-3.39.43-6.46,1.85-10.12,3.1.75-3.21,1.71-5.82,1.73-8.63.08-12.49-9.94-26.28-23.48-31.73-14.11-5.68-28.62-5.66-42.89-1.13-13.38,4.25-22.18,12.85-22.5,27.84-4.52-3-5.82-3.4-9.52-3.06-7,.65-12.65,6.18-11.42,11.68.63,2.83-.3,3.14-2.52,2.72a38.94,38.94,0,0,0-17.5.88C14.2,49.62,5.2,56.69,3.34,69.58c-1.74,12,3.3,21.87,13.38,28.87,8,5.53,16.91,8.7,26.29,10.5,8.91,12.87,27.12,21.7,48.16,21.7,18.87,0,35.46-7.1,45.12-17.85a62.67,62.67,0,0,0,15.9,2c21.86,0,39.59-10.63,39.59-23.73a14.49,14.49,0,0,0-.18-2.25A31.22,31.22,0,0,0,194.16,57.46Z"/><path class="cls-2" d="M88.81,58.14c3.86-7,15.71-7.85,22.7-6.79a32,32,0,0,1,19.77,11.09c2.5,3,6.73-1.31,4.24-4.24a38,38,0,0,0-25.95-13.07c-8.8-.74-21.29,1.57-25.94,10-1.87,3.38,3.31,6.41,5.18,3Z"/></svg>