<svg id="Layer_1" data-name="Layer 1" xmlns="http://www.w3.org/2000/svg" viewBox="0 0 200.02 200.02">
    <defs>
        <style>.cls-1{fill:#fff;}</style>
    </defs>
    <title>diamond_star</title>
    <path class="cls-1" d="M198.11,97.26,167.5,86A90.24,90.24,0,0,1,114,32.52L102.76,1.91a2.93,2.93,0,0,0-5.5,0L86,32.52A90.25,90.25,0,0,1,32.52,86L1.91,97.26a2.93,2.93,0,0,0,0,5.5L32.53,114A90.25,90.25,0,0,1,86,167.49l11.29,30.61a2.93,2.93,0,0,0,5.5,0L114,167.49A90.25,90.25,0,0,1,167.5,114l30.61-11.29a2.93,2.93,0,0,0,0-5.5Z"/>
</svg>