<svg id="Layer_1" data-name="Layer 1" xmlns="http://www.w3.org/2000/svg" viewBox="0 0 776.68 99.28"><defs><style>.cls-1{fill:#9d9ab3;}</style></defs><title>light-waves</title><path class="cls-1" d="M775.74,18.16c-7.85-8-18.26-13.78-32.15-16.36-27.77-5.16-52.89,1.9-67.8,18.73-9.31,10.51-25.71,15-43.43,12.3-14-2.11-20.75-9.19-27.92-16.24-21.91-21.55-69-22.15-92.59-1.43-5.69,5-9.72,11-18.08,14.54-19.4,8.13-42.66,4-54.88-9.67Q421.84,1,388.42.17h-2c-.68,0-1.37,0-2,0-20.3.17-38,7.31-49.56,20.35-9.31,10.51-25.71,15-43.43,12.3-14-2.11-20.75-9.19-27.92-16.24C241.6-5,194.52-5.57,170.92,15.14c-5.69,5-9.72,11-18.08,14.54-19.4,8.13-42.66,4-54.88-9.67Q80.91,1,47.49.17C27-.3,11.91,6.08,0,16.21L.95,99.28H776.68Z"/></svg>