<svg id="Layer_1" data-name="Layer 1" xmlns="http://www.w3.org/2000/svg" viewBox="0 0 254.79 124.78"><defs><style>.cls-1{fill:#cd6666;stroke:#5b5a80;stroke-miterlimit:10;stroke-width:6px;}.cls-2{fill:#5b5a80;}</style></defs><title>light_cloud_light</title><path class="cls-1" d="M18.18,87.9C12.29,83.4,8.71,77.5,8.71,71c0-11.68,11.64-21.51,27.51-24.53a23.82,23.82,0,0,1-2.09-9.67C34.13,18.14,56.56,3,84.23,3c24,0,44.08,11.41,49,26.64,1.48-.11,3-.17,4.49-.17A58.64,58.64,0,0,1,151.1,31c7.23-4.42,16.82-7.11,27.34-7.11,22.51,0,40.75,12.32,40.75,27.51,0,7.61.58,13.69,5.15,13.69,15.07,0,27.46,15.84,27.46,26s-12.22,18.42-27.29,18.42a38.06,38.06,0,0,1-12.65-2.1c-7.81,7.88-21.11,13.07-36.2,13.07-11.81,0-22.51-3.18-30.36-8.33a53.53,53.53,0,0,1-26.21,6.45,54.24,54.24,0,0,1-24.85-5.71c-6.87,5.43-17.07,8.87-28.47,8.87-13.21,0-24.81-4.62-31.47-11.59A24.86,24.86,0,0,1,22,113.26c-10.48,0-19-5.73-19-12.81C3,94.25,9.52,89.08,18.18,87.9Z"/><path class="cls-2" d="M59.84,69.56c3.86-7,15.71-7.85,22.7-6.79a32,32,0,0,1,19.77,11.09c2.5,3,6.73-1.31,4.24-4.24A38,38,0,0,0,80.6,56.54c-8.8-.74-21.29,1.57-25.94,10-1.87,3.38,3.31,6.41,5.18,3Z"/></svg>