<svg id="Layer_1" data-name="Layer 1" xmlns="http://www.w3.org/2000/svg" viewBox="0 0 172.28 86.46"><defs><style>.cls-1{fill:#a44349;stroke:#5b5a80;stroke-miterlimit:10;stroke-width:8px;}</style></defs><title>light_cloud_dark</title><path class="cls-1" d="M14,60.14c-3.89-3-6.27-6.86-6.27-11.13,0-7.71,7.66-14.22,18.14-16.23a15.73,15.73,0,0,1-1.39-6.38C24.46,14.06,39.25,4,57.52,4c15.86,0,29.12,7.48,32.36,17.53,1-.07,2-.12,3-.12a38.73,38.73,0,0,1,8.86,1,34.94,34.94,0,0,1,18-4.73c14.86,0,26.92,8.08,26.94,18.12,0,5-2.42,8.29-7.89,12.88-1,.86,8.41,1.18,11.43,1.18,10,0,18,5.41,18,12.13s-8,12.18-18,12.2a25.13,25.13,0,0,1-8.36-1.37C136.78,78,128,81.46,118,81.48A36.86,36.86,0,0,1,98,76a35.35,35.35,0,0,1-17.3,4.29,35.81,35.81,0,0,1-16.42-3.74C59.73,80.16,53,82.45,45.47,82.46c-8.72,0-16.39-3-20.8-7.62a16.42,16.42,0,0,1-8.13,2C9.62,76.9,4,73.12,4,68.45,4,64.36,8.29,60.94,14,60.14Z"/></svg>