<?xml version="1.0" encoding="utf-8"?>
<!-- Generator: Adobe Illustrator 20.1.0, SVG Export Plug-In . SVG Version: 6.00 Build 0)  -->
<svg version="1.1" id="Layer_1" xmlns="http://www.w3.org/2000/svg" xmlns:xlink="http://www.w3.org/1999/xlink" x="0px" y="0px"
	 width="335.6px" height="97px" viewBox="0 0 335.6 97" style="enable-background:new 0 0 335.6 97;" xml:space="preserve">
<style type="text/css">
	.st0{fill:#006EEC;}
	.st1{fill:#FFCC66;}
	.st2{fill:none;}
	.st3{font-family:'ArialMT';}
	.st4{font-size:12px;}
	.st5{fill:#5D5580;}
	.st6{font-family:'Verdana-Bold';}
	.st7{font-size:30px;}
</style>
<g>
	<path id="bName" class="st0" d="M5.5,21.5c0,0-5.5,28-5.5,37c0,8.5,5.5,33,5.5,33s122,13.5,149.5-2c42.6-24,156-2,156-2
		s4.2-25.7,4.4-34c0.2-9.5-5.5-31-5.5-31c-5.2-9.9-136.4-8-165.8,2C98.3,40.1,5.5,21.5,5.5,21.5z"/>
	<path id="yName" class="st1" d="M25.1,5.5c0,0-5.5,28-5.5,37c0,8.5,5.5,33,5.5,33s122.2,13.5,149.7-2c42.6-24,156.3-2,156.3-2
		s4.2-25.7,4.4-34c0.2-9.5-5.5-31-5.5-31c-5.2-9.9-136.6-8-166.1,2C118.1,24.1,25.1,5.5,25.1,5.5z"/>
</g>
<path id="SVGID_x5F_1_x5F_" class="st2" d="M15.4,49.3C28.8,53,53.7,60.6,82.7,59.9c18.9-0.5,38.5-1.9,62.2-5.8
	c50.7-8.2,98.9-19.9,156.3-4.6"/>
<text transform="matrix(1 0 0 1 45.1404 56.6307)" class="st3 st4"> </text>
<text transform="matrix(1 0 0 1 35.4921 48.5001)" class="st5 st6 st7">K</text>
<text transform="matrix(1 0 0 1 58.5232 56.4576)" class="st5 st6 st7">A</text>
<text transform="matrix(1 0 0 1 77.3163 55.5891)" class="st5 st6 st7">T</text>
<text transform="matrix(1 0 0 1 97.7178 54.0266)" class="st5 st6 st7">E</text>
<text transform="matrix(1 0 0 1 135.4215 55.5894)" class="st5 st6 st7"> </text>
<text transform="matrix(1 0 0 1 137.355 54.0269)" class="st5 st6 st7">S</text>
<text transform="matrix(1 0 0 1 157.7026 54.027)" class="st5 st6 st7">H</text>
<text transform="matrix(1 0 0 1 180.742 48.4999)" class="st5 st6 st7">I</text>
<text transform="matrix(1 0 0 1 197.4565 50.9972)" class="st5 st6 st7">J</text>
<text transform="matrix(1 0 0 1 213.56 41.8486)" class="st5 st6 st7">I</text>
<text transform="matrix(1 0 0 1 228.9662 48.5004)" class="st5 st6 st7">E</text>
<text transform="matrix(1 0 0 1 261.0225 42.6482)" class="st5 st6 st7"> </text>
<text transform="matrix(1 0 0 1 267.4087 37.6212)" class="st5 st6 st7">X</text>
<text class="st3 st4"> </text>
<text transform="matrix(1 0 0 1 287.5893 42.6482)" class="st5 st6 st7">U</text>
</svg>
