<?xml version="1.0" encoding="utf-8"?>
<!-- Generator: Adobe Illustrator 20.1.0, SVG Export Plug-In . SVG Version: 6.00 Build 0)  -->
<svg version="1.1" id="Layer_1" xmlns="http://www.w3.org/2000/svg" xmlns:xlink="http://www.w3.org/1999/xlink" x="0px" y="0px"
	 width="69.9px" height="67.8px" viewBox="0 0 69.9 67.8" style="enable-background:new 0 0 69.9 67.8;" xml:space="preserve">
<style type="text/css">
	.st0{fill:#FFCC67;}
	.st1{fill:#CD6666;}
	.st2{fill:#FAFBFC;}
</style>
<g>
	<path class="st0" d="M37.1,65.6c0.9,0.4,2.9,2,3.9,2.2c1.4,0.2,3.6-2.5,3.9-3.1c0.8-1.5,1.4-3,2-4.5c1.3-3.1,1.7-6.3,0.8-9.9
		c6.5,3.2,12.3,2.3,17.9-0.7c2.1-1.1,2.5-2.9,1.2-4.8c-1-1.5-1.3-2.5,0.8-3.4c1.9-0.9,2.8-2.6,1.6-4.6c-2.6-4-5.6-7.8-10.5-9.3
		c-1.4-0.4-5.5-0.9-5.5-0.9s2.5-2.8,3.3-4.3c0.4-0.8,1.6-5.7,1.6-6.3c-0.1-3.2-0.3-6.1-2.1-8.8c-0.3-0.5-3.2,0.3-3.6,0.5
		c-0.6,0.2-1.1,0.6-1.6,0.1c-0.3-0.6-0.8-5-1.6-5.5c-0.9-0.7-4.9,0.9-5.9,1.3c-1.6,0.6-3.2,1.2-4.6,2.4c-0.7,0.6-5.3,6-5.7,7.2
		c-0.2,0.6-1,0.1-1.2-0.3c-0.5-1.4-1.8-3.9-5.9-6.9c-2.8-2-5.7-2.8-8.8-2.9c-2.2-0.1-3.5,0.5-3.4,3.1c0.1,1.4-0.1,2.7-2.1,2.4
		c-0.9-0.1-1.3-0.2-1.9-0.3C8.3,7.7,6.1,8.6,6,10.4c-0.4,6.1,1.6,11.7,6.3,16c1,0.9,0.6,1.5-0.6,1.8c-5.1,1-8.4,4.3-10.8,8.7
		c-1.7,3.1-1.3,4.9,1.7,6.4c1.5,0.8,1.6,1.8,0.8,3.2c-1,1.8-0.8,3.5,1.2,4.4c5.3,2.5,10.7,3.3,16.3,0.8c1.2-0.5,1.6-0.3,1.6,0.9
		c0,3.1,0.7,6,2.3,8.7c0.4,0.7,1.9,4.2,2.9,5.2c0-0.1,2.8,1,4.5,1.1C33.2,67.7,36.2,65.2,37.1,65.6z M53.4,30c4.1,0,7.5,1.3,9.8,4.4
		c0.7,0.8,1.3,1.4,1.8,2c1.3,1.4,1.6,2.3-0.7,3.1c-2.5,0.9-2.8,2-1.7,4.5c1.5,3.3,1.4,3.2-2.1,4.4c-7.4,2.5-13.7-1.3-18.4-7.5
		c-1-1.3-2.1-2.6-3.1-3.9c-1.3-1.7-1-2.8,1-3.5C44.5,31.9,48.7,30,53.4,30z M45.1,6.1c1.7-0.5,2.6,0,2.8,1.7c0.3,2.7,1.5,4,4.3,3
		c1.9-0.6,2.7,0.2,2.9,2.1c0.7,6.7-1.2,10.5-7.5,14.1c-3.1,1.8-6.6,3.1-10.2,3.9c-0.8,0.2-1.6,0.5-1.8-0.7c-1-6.6-1.9-13.2,2-19.2
		c0.4-0.6,1-1,1.6-1.6C40.8,8.1,42.7,6.7,45.1,6.1z M13.3,23.1c-2.3-2.7-3.2-6.1-3.4-9.7c-0.1-1.6,0.7-2.3,2.3-2
		c2.7,0.5,4.4-0.2,4.5-3.3c0-1.9,1-2.3,2.8-1.8c8,2.3,10.2,5.5,11.7,13.5c0.6,2.9,0.8,5.9,0.5,8.9c-0.1,1.1-0.3,2-1.6,1.7
		C24,29.1,18.1,27.7,13.3,23.1z M19.3,49.1c-4,1.9-8,1.3-11.9-0.4c-1.3-0.6-0.5-1.7-0.2-2.5c1.2-3.6,1.3-3.7-2.1-5.1
		c-1.4-0.6-1.7-1.3-1-2.6c0.8-1.7,1.9-3.1,3.2-4c3.5-3.6,7.7-4.1,12.1-3.4c3.3,0.6,6.4,1.5,9.6,2.6c1.5,0.5,2.4,1.5,1.5,2.9
		C27.3,41.2,24.7,46.5,19.3,49.1z M33.5,63.2c-1.4,1.4-2.4,1-3.5,0c-4.7-4.3-5.5-13.1-1.5-18.2c1.4-1.7,2.4-3.7,3.6-5.4
		c2.2-3.2,2.3-3.2,5.2,0c2.6,4,6.8,7.5,7.6,13.2c0.6,4.3-1.3,7.6-3.5,10.8c-0.8,1.1-1.6,0.4-2.4-0.3C36.2,60.7,36.1,60.6,33.5,63.2z
		"/>
	<path class="st1" d="M63.2,34.5c0.7,0.8,1.3,1.4,1.8,2c1.3,1.4,1.6,2.3-0.7,3.1c-2.5,0.9-2.8,2-1.7,4.5c1.5,3.3,1.4,3.2-2.1,4.4
		c-7.4,2.5-13.7-1.3-18.4-7.5c-1-1.3-2.1-2.6-3.1-3.9c-1.3-1.7-1-2.8,1-3.5c4.3-1.5,8.5-3.5,13.3-3.4C57.6,30,60.9,31.4,63.2,34.5z"
		/>
	<path class="st1" d="M39.1,9.3c1.7-1.3,3.6-2.6,6-3.3c1.7-0.5,2.6,0,2.8,1.7c0.3,2.7,1.5,4,4.3,3c1.9-0.6,2.7,0.2,2.9,2.1
		c0.7,6.7-1.2,10.5-7.5,14.1c-3.1,1.8-6.6,3.1-10.2,3.9c-0.8,0.2-1.6,0.5-1.8-0.7c-1-6.6-1.9-13.2,2-19.2
		C37.9,10.4,38.5,10,39.1,9.3z"/>
	<path class="st1" d="M7.2,34.5c3.5-3.6,7.7-4.1,12.1-3.4c3.3,0.6,6.4,1.5,9.6,2.6c1.5,0.5,2.4,1.5,1.5,2.9
		c-3.1,4.7-5.7,9.9-11.1,12.5c-4,1.9-8,1.3-11.9-0.4c-1.3-0.6-0.5-1.7-0.2-2.5c1.2-3.6,1.3-3.7-2.1-5.1c-1.4-0.6-1.7-1.3-1-2.6
		C4.9,36.8,6,35.4,7.2,34.5z"/>
	<path class="st1" d="M13.3,23.1c-2.3-2.7-3.2-6.1-3.4-9.7c-0.1-1.6,0.7-2.3,2.3-2c2.7,0.5,4.4-0.2,4.5-3.3c0-1.9,1-2.3,2.8-1.8
		c8,2.3,10.2,5.5,11.7,13.5c0.6,2.9,0.8,5.9,0.5,8.9c-0.1,1.1-0.3,2-1.6,1.7C24,29.1,18.1,27.7,13.3,23.1z"/>
	<path class="st1" d="M37.2,39.6c2.6,4,6.8,7.5,7.6,13.2c0.6,4.3-1.3,7.6-3.5,10.8c-0.8,1.1-1.6,0.4-2.4-0.3c-2.7-2.5-2.8-2.6-5.5,0
		c-1.4,1.4-2.4,1-3.5,0c-4.7-4.3-5.5-13.1-1.5-18.2c1.4-1.7,2.4-3.7,3.6-5.4C34.2,36.4,34.3,36.4,37.2,39.6z"/>
	<path class="st2" d="M34.4-17.5"/>
</g>
</svg>
