<?xml version="1.0" encoding="utf-8"?>
<!-- Generator: Adobe Illustrator 20.1.0, SVG Export Plug-In . SVG Version: 6.00 Build 0)  -->
<svg version="1.1" id="Layer_1" xmlns="http://www.w3.org/2000/svg" xmlns:xlink="http://www.w3.org/1999/xlink" x="0px" y="0px"
	 width="293.2px" height="410.6px" viewBox="0 0 293.2 410.6" style="enable-background:new 0 0 293.2 410.6;" xml:space="preserve"
	>
<style type="text/css">
	.st0{fill:#A4C2F5;stroke:#7D779A;stroke-width:11;stroke-miterlimit:10;}
	.st1{fill:#5D5580;}
</style>
<path class="st0" d="M146.7,5.6c13.8,0,27.5,0.2,41.3-0.1c5.4-0.1,9.3,1.7,13.1,5.5C227.9,38,254.9,65,282,91.9
	c4.1,4.1,5.8,8.3,5.7,14.1c-0.2,26.5-0.2,53,0,79.4c0,5.7-1.4,10.1-5.5,14.1c-27.8,27.6-55.5,55.3-83.1,83.1
	c-3.8,3.9-8,5.2-13.2,5.1c-26.1-0.2-52.3-0.2-78.4,0c-5.8,0.1-10-2-14-6c-27.4-27.6-54.8-55-82.3-82.4c-4.1-4.1-5.6-8.4-5.6-14.1
	c0.2-26.5,0.3-53,0-79.4C5.4,99.6,8,95.4,12.2,91.2c26.6-26.4,53-52.8,79.3-79.4c4.3-4.3,8.7-6.4,14.9-6.3
	C119.8,5.9,133.3,5.6,146.7,5.6z"/>
<g id="UXN0eW_1_">
	<g>
		<g>
			<path class="st1" d="M12.4,357c9-3.9,18.3-7,28.1-10c0.6,11.2,1.9,36.1,1.8,37.4c-0.3,4.7,1.1,5.2,5.8,7.7
				c9.5,5.3,10.7,1,9.5,2.7c-2.4,3-4.9,4.3-7.9,5c-11.7,2.5-23.3,5.9-35.3,10.8c2-8,3.6-15.4,5.8-22.5c2.1-6.6,0.2-12.2-2.5-17.8
				c-2-4-2.6-7.2-5.3-12.4C12.4,357.7,12.4,357.3,12.4,357z"/>
			<path class="st1" d="M174.5,318.5c7,0.5,14.1,0.9,21.1,1.7c8.9,1.1,43.2,7,51.4,8.3c3.3,0.5,3.9,2.1,3.7,5.2
				c-0.8,13.1-2.9,45.9-3,49.2c-0.1,2.6-0.9,3.7-3.3,3c-12.1-3.4-57.3-8.4-67.6-9c-28.6-1.7-57.1-0.9-85.6,2.1
				c-13.5,1.4-27,3.8-40.3,6.6c-3.4,0.7-4.7,0.9-5.3-4.3c-1.2-11.1-2.4-41.8-2.2-48.3c0.1-1.8-0.9-3,2.5-3.8
				c10.4-2.6,20.9-4.9,31.5-6.5C122,315.8,157.9,317.4,174.5,318.5z"/>
			<path class="st1" d="M231.9,396.2c4.7-1.3,9.3-2.8,14-4c3.1-0.8,4.9-2.1,5-6.2c0.4-11.1,1.4-22.2,2.1-33.3
				c0.4-5.7,0.3-5.8,5.5-4.1c6.8,2.3,13.7,4.4,20.3,7.5c2.2,1,2.2,1.8,1.3,3.9c-2.5,5.6-4.8,11.3-7.3,17c-1.2,2.8-1.3,5.5-0.4,8.5
				c2,7,3.9,14,5.8,20.9c0.7,2.7,0.3,3.9-2.5,2.9C261.5,403.8,246.9,399.7,231.9,396.2z"/>
			<path class="st1" d="M53.1,389.6c4-0.8,7.9-1.6,11.7-2.6c3.6-0.9,5,0.8,5,4.9c0,2.3-0.6,2.5-2.3,2
				C62.7,392.5,57.9,391.1,53.1,389.6z"/>
			<path class="st1" d="M240.8,389.5c-5.3,1.6-9.6,2.9-13.8,4.2c-0.8,0.2-2.1,1-2.3-0.1c-0.3-2-0.2-4.2,0.1-6.3
				c0.1-1,1.2-0.7,1.9-0.6C231.9,386.8,235.5,387.7,240.8,389.5z"/>
		</g>
	</g>
</g>
</svg>
