<svg id="Layer_1" data-name="Layer 1" xmlns="http://www.w3.org/2000/svg" viewBox="0 0 971.66 348.8"><defs><style>.cls-1{fill:none;}.cls-2{fill:#b1ae83;}.cls-3{fill:#a34248;}.cls-4{fill:#999259;}</style></defs><title>projects-stripes</title><path class="cls-1" d="M423.8,100.27q8.76,4.23,17.55,8.41A171.16,171.16,0,0,0,423.8,100.27Z"/><polygon class="cls-2" points="216.08 197.23 11.3 189.54 216.08 197.23 216.08 197.23"/><polygon class="cls-2" points="216.08 197.23 971.66 225.63 971.66 225.63 216.08 197.23 216.08 197.23"/><path class="cls-3" d="M423.8,100.27C387.81,82.87,352,65,314.54,51.2c-55.22-20.32-113.32-31.42-171.6-38.42C113.62,9.26,13-2.65,2.54.54-4.32,2.63,4.31,75.5,9.59,131c29-24.79,110.24-58,146.82-63.91C215.56,57.64,352.25,70.44,423.8,100.27Z"/><path class="cls-4" d="M511.78,143.46c-18.66-9.6-37.74-19.59-57.82-28.87q-6.32-2.92-12.61-5.92-8.79-4.17-17.55-8.41C352.25,70.44,215.56,57.64,156.41,67.12,119.84,73,38.58,106.24,9.59,131c.63,6.59,1.21,12.94,1.71,18.9V348.8a448.55,448.55,0,0,1,130.41-116,502,502,0,0,1,74.38-35.53c111.6-42.61,237.51-47.15,355.8-25.21C551.83,163.87,532,153.89,511.78,143.46Z"/></svg>