<?xml version="1.0" encoding="utf-8"?>
<!-- Generator: Adobe Illustrator 20.1.0, SVG Export Plug-In . SVG Version: 6.00 Build 0)  -->
<svg version="1.1" id="Layer_1" xmlns="http://www.w3.org/2000/svg" xmlns:xlink="http://www.w3.org/1999/xlink" x="0px" y="0px"
	 width="268.4px" height="93.1px" viewBox="0 0 268.4 93.1" style="enable-background:new 0 0 268.4 93.1;" xml:space="preserve">
<style type="text/css">
	.st0{fill:#5D5580;}
</style>
<g id="UXN0eW_1_">
	<g>
		<g>
			<path class="st0" d="M0,39.5c9-3.9,18.3-7,28.1-10c0.6,11.2,1.9,36.1,1.8,37.4c-0.3,4.7,1.1,5.2,5.8,7.7c9.5,5.3,10.7,1,9.5,2.7
				c-2.4,3-4.9,4.3-7.9,5c-11.7,2.5-23.3,5.9-35.3,10.8c2-8,3.6-15.4,5.8-22.5C9.9,64,8.1,58.4,5.3,52.9c-2-4-2.6-7.2-5.3-12.4
				C0,40.2,0,39.8,0,39.5z"/>
			<path class="st0" d="M162.1,1c7,0.5,14.1,0.9,21.1,1.7c8.9,1.1,43.2,7,51.4,8.3c3.3,0.5,3.9,2.1,3.7,5.2
				c-0.8,13.1-2.9,45.9-3,49.2c-0.1,2.6-0.9,3.7-3.3,3c-12.1-3.4-57.3-8.4-67.6-9c-28.6-1.7-57.1-0.9-85.6,2.1
				c-13.5,1.4-27,3.8-40.3,6.6c-3.4,0.7-4.7,0.9-5.3-4.3C32,52.8,30.8,22.1,31,15.6c0.1-1.8-0.9-3,2.5-3.8C43.9,9.1,54.4,6.8,65,5.2
				C109.6-1.7,145.5-0.1,162.1,1z"/>
			<path class="st0" d="M219.5,78.7c4.7-1.3,9.3-2.8,14-4c3.1-0.8,4.9-2.1,5-6.2c0.4-11.1,1.4-22.2,2.1-33.3
				c0.4-5.7,0.3-5.8,5.5-4.1c6.8,2.3,13.7,4.4,20.3,7.5c2.2,1,2.2,1.8,1.3,3.9c-2.5,5.6-4.8,11.3-7.3,17c-1.2,2.8-1.3,5.5-0.4,8.5
				c2,7,3.9,14,5.8,20.9c0.7,2.7,0.3,3.9-2.5,2.9C249.1,86.3,234.5,82.2,219.5,78.7z"/>
			<path class="st0" d="M40.7,72.1c4-0.8,7.9-1.6,11.7-2.6c3.6-0.9,5,0.8,5,4.9c0,2.3-0.6,2.5-2.3,2C50.3,75,45.5,73.6,40.7,72.1z"
				/>
			<path class="st0" d="M228.4,72c-5.3,1.6-9.6,2.9-13.8,4.2c-0.8,0.2-2.1,1-2.3-0.1c-0.3-2-0.2-4.2,0.1-6.3c0.1-1,1.2-0.7,1.9-0.6
				C219.5,69.3,223.1,70.2,228.4,72z"/>
		</g>
	</g>
</g>
</svg>
