<?xml version="1.0" encoding="utf-8"?>
<!-- Generator: Adobe Illustrator 20.1.0, SVG Export Plug-In . SVG Version: 6.00 Build 0)  -->
<svg version="1.1" id="Layer_1" xmlns="http://www.w3.org/2000/svg" xmlns:xlink="http://www.w3.org/1999/xlink" x="0px" y="0px"
	 width="883.9px" height="536.7px" viewBox="0 0 883.9 536.7" style="enable-background:new 0 0 883.9 536.7;" xml:space="preserve"
	>
<style type="text/css">
	.st0{fill:none;stroke:#FFFFFF;stroke-width:2;stroke-miterlimit:10;}
	.st1{fill:#FFFFFF;}
	.st2{fill:#7F782D;stroke:#FFFFFF;stroke-miterlimit:10;}
	.st3{fill:none;stroke:#FFFFFF;stroke-width:3;stroke-miterlimit:10;}
	.st4{fill:#7D779A;stroke:#FFFFFF;stroke-miterlimit:10;}
	.st5{fill:#9D9AB3;stroke:#FFFFFF;stroke-miterlimit:10;}
	.st6{fill:#EA9D9F;}
	.st7{fill:#7D779A;}
	.st8{fill:#FAFAFA;}
	.st9{fill:#CC6666;stroke:#FFFFCC;stroke-miterlimit:10;}
	.st10{fill:#EA9D9F;stroke:#FFFFCC;stroke-miterlimit:10;}
	.st11{fill:#FED965;}
</style>
<path class="st0" d="M690,207.6c-2-20.6,8.1-42.8,19.8-60.2c8.1-12.1,17.4-23.6,24.7-36.1"/>
<path class="st0" d="M606.3,289.9c-4.3-4.3-34.7-35-75.6-57.8c-39.8-22.2-87.1-41.5-96.3-44.6"/>
<g>
	<path class="st1" d="M648.9,129c0,0,0-0.1,0.1-0.4c0.1-0.2,0.2-0.6,0.4-1c0.2-0.5,0.4-1,0.7-1.6s0.6-1.3,1-2
		c1.4-2.9,3.4-6.6,5.4-10.4c1-1.9,2-3.7,2.9-5.5c0.4-0.9,0.8-1.7,1.2-2.6c0.4-0.8,0.8-1.6,1.1-2.3c1.4-2.9,2.5-4.7,2.5-4.7
		s-0.8,2-1.7,5c-0.2,0.8-0.5,1.6-0.7,2.5c-0.3,0.9-0.6,1.8-1,2.7c-0.7,1.9-1.5,3.8-2.3,5.8c-1.6,3.9-3.2,7.9-4.3,10.8
		c-0.3,0.7-0.5,1.4-0.7,2s-0.4,1.1-0.5,1.5c-0.1,0.4-0.2,0.8-0.3,1s-0.1,0.4-0.1,0.4L648.9,129z"/>
</g>
<path class="st2" d="M598.9,68.8c-0.6,0.1-1.1,0.5-1.2,1.1c-0.7,3.6,1.3,7.3,3.2,10.6c10.6,18.7,19,38.6,25,59.2
	c0.2,0.7,0.6,1.6,1.3,1.7c0.4,0.1,0.8-0.1,1.1-0.2c8.2-3.4,16.3-6.7,24.5-10.1c0.9-0.4,1.7-0.8,2.5-1.5c3.6-3,1.7-6.7-0.3-9.4
	c-4-5.5-8.8-10.4-12.9-15.8c-7.5-10.2-11.9-22.2-16.1-34.1c-0.4-1.2-1.5-2-2.8-2C618.4,68.1,606.5,67.9,598.9,68.8z"/>
<path class="st3" d="M752.7,449.6c-14.8-19.3-33.1-42.9-48-62.2c-6.4-8.3-12.7-16.6-19.5-24.5c-20.1-23.4-43.9-43.3-67.6-63.1
	c-11.3-9.5-23.8-19.4-38.5-20.4"/>
<path class="st2" d="M696.5,231.6c-5.5,2.4-10.9,5.3-15.9,8.5c-1.5,1-3.2,2.1-3.6,3.8c-0.3,1.2,0.2,2.4,0.6,3.5
	c6.2,17.3,12.4,34.7,18.6,52c4.9,13.7,12.4,26.5,18.5,39.8c4.4,9.6,18,6.1,24.7,3.6c3.4-1.3,7.3-3.1,7.8-6.4
	c0.3-1.8-0.6-3.6-1.5-5.3c-15.9-31.2-30.1-63.2-42.6-95.6c-0.8-2-2.1-4.5-4.5-4.5L696.5,231.6z"/>
<path class="st2" d="M657.8,135.7c-9.6,1.6-16.9,9.4-25.3,14.1c-0.8,0.4-1.7,1-1.9,1.8s0.2,1.7,0.6,2.5
	c14.3,24.9,27.5,50.2,39.7,76.1c1.1,2.4,3,5.2,5.7,4.7c0.7-0.1,1.3-0.4,1.9-0.8c4.5-2.4,9-4.8,13.5-7.2c1.3-0.7,2.6-1.4,3.6-2.5
	c3-3.5,0.9-8.6-1.3-12.6c-13.1-23.4-27.2-47-32.4-73C661.5,136.4,659.1,135.5,657.8,135.7z"/>
<path class="st2" d="M725.9,352.6c-2.1,0-4.5,0.1-5.8,1.7c-1.1,1.5-0.6,3.7,0.5,5.2s2.7,2.6,4,3.9c2.8,2.8,4.3,6.7,5.6,10.4
	c10.3,28.8,17.7,58.6,22.1,88.9c0.2,1.1,0.3,2.2,1.1,3c1,1,2.7,0.9,4.2,0.8c8-1,15.8-2.7,23.5-5.1c3.2-1,6.5-2.2,8.9-4.5
	c2.4-2.4,3.6-6.2,1.9-9.2c-1.2-2-3.4-3.2-4.9-5c-1.2-1.4-1.9-3.1-2.6-4.9c-12.4-31.6-23.4-63.6-33.1-96.1
	C751.4,341.7,735.4,352.4,725.9,352.6z"/>
<path class="st2" d="M793.5,461.9c-1.6-1-3.6,0.7-5.1,2c-4,3.4-8.8,5.7-14,6.6c-5.6,1-11.4,0.5-16.7,2.3c-0.7,0.2-1.4,0.6-1.6,1.2
	c-0.1,0.5,0.2,1.1,0.4,1.6c1.1,1.9,2.4,4,4.5,4.7c0.8,0.3,1.6,0.3,2.4,0.3c12.4,0.4,24.3-1,36.5-3.2
	C799.7,471.8,797.1,464.2,793.5,461.9z"/>
<path class="st2" d="M664.2,98.5c1.1-2.3,2.3-4.5,3.7-6.6c5.2-7.6,13.2-13.3,22.1-15.8c8.9-2.5,18.7-1.7,27.1,2.1
	c-8.6,2.3-17.2,4.5-25.7,6.8c10.6,4.1,19.6,12.4,24.5,22.6c-7.2-8.1-20.5-8-28.1-15.7c2.6,4.5,4.3,9.5,7,14s6.6,8.6,11.7,9.6
	c-5.3,2.1-10.9-1.8-15.1-5.6c-4.3-3.9-8.4-8.1-12.4-12.4c-1.3-1.5-2.8-3.1-4.7-3.5C670.9,93.1,664.2,98.5,664.2,98.5z"/>
<path class="st4" d="M561.4,69.9c38.6,134.5,77,269.5,95.7,407.1c0.3,2.4-1.5,4.5-4,4.5h-5.4c-2,0-3.7-1.5-3.9-3.5
	c-8.1-68.5-24.7-135.7-41.2-202.7c-5.8-23.7-11.7-47.5-17.5-71.2c-4.8-19.4-9.6-38.9-15.9-57.9c-8.1-24.3-18.7-47.8-25.7-72.4
	c-1.4-4.8,2.3-9.6,7.3-9.6h3C557.3,64.1,560.4,66.5,561.4,69.9z"/>
<path class="st0" d="M657.2,203c-7.6-3.8-18.4-8-26.7-10.1c-14.8-3.7-30.7-4.4-45.2,0.3s-29.2,17.9-34.8,32.2"/>
<path class="st5" d="M630.1,212.6c-0.8,0.9-1.6,2-2.2,3.1"/>
<path class="st2" d="M629.5,198.1c-2.4-0.9-5.3-0.1-7.4,1.4c-2.1,1.5-3.6,3.7-5.2,5.8c-8.8,12.4-29.1,39.9-34.1,42.1
	c11.7-6.4,26.2-16.6,36.3-24.8c7.4-6.1,12.3-11.6,12.3-11.6c-1.2,2-2.5,6-3.2,8.6c-4.4,17,0.2,32,3.2,49.3c0,0,9.9-34.5,14.9-51.7
	c0,0,1.7,13.6,2.5,20.1c1.4,10.8,2.8,21.8,1.4,32.6c3.1-6.9,6.1-13.8,7.8-21.1c1.1-5,1.6-10.2,2-15.3c0.8-8.8,1.5-17.6,1.3-26.4
	c-0.1-2.5-0.2-5-1.5-7.1s-3.9-3.6-6.2-2.8c-3.3,1.2-4.4,6.4-7.9,6.6c-1.1,0.1-2.1-0.4-3.1-0.6c-2.9-0.7-7.4,2.4-7.6,2.6
	C635.2,205.9,632.3,199.2,629.5,198.1z"/>
<path class="st2" d="M568.4,277.3c-0.1-2.1-2.5-3.5-4.5-3.3c-2.1,0.2-3.7,1.5-5.5,2.4c-9.4,4.9-17.1,25.7-17.1,25.7
	c5.4-8.8,14.6-15.1,24.7-17.2l3.9-2.7L568.4,277.3z"/>
<path class="st2" d="M582.7,310.4c1-3.6,3-7,4.1-10.6c2.1-6.6,2.6-14.8-1.7-20.2c-0.8-1-2.2-2.1-4.6-1.9c-4.4,0.4-3.2,7-4.6,5.8
	c-1.3-1.2-2.7-2.5-5.8-5.2c-0.5-0.4-4.9-1.2-6.3,0.1c-0.6,0.5-1.6,2-1.8,2.7c-1.5,4.3-0.9,9-1.4,13.5c-0.7,6.3-3.4,12.1-6.1,17.8
	c-1.5,3.1-2.9,6.2-4.4,9.3c3.9-3.4,8-6.4,12.4-9.2c3.3-2,6.7-3.9,9.2-6.9c0.7-0.8,1.3-1.7,1.7-2.6c0,0.3,0.1,0.5,0.1,0.8
	c0.7,4.8,0.4,8.1,3.4,12.1c1.4,1.9,4.7,4.4,7,5.3C581.6,318.3,581.6,314.1,582.7,310.4z"/>
<path class="st3" d="M714.1,399.8c-11.1-8-30.7-11.6-44.3-12.1s-27.2,1.6-40.7,3.7c-5.5,0.9-11.8,2.2-14.6,7.1"/>
<path class="st2" d="M616.1,396.3c-0.6,0.2-1.2-0.2-1.2-0.8c0-2-1.8-4.1-4-4.4c-2.8-0.4-5.4,1.5-6.9,3.9s-5.6,8.8-6.4,11.5
	c-3.9,13.1-6.9,16-13.9,27.4c14.5-12.3,14.2-10.7,23-27.6c0,0-8,22.5-9.7,41.6c3.2-4.9,16.2-19.6,20.6-25.4
	c4.7-6.3,9.8-16.9,3.7-24.7C619.6,395.7,617.6,395.8,616.1,396.3z"/>
<path class="st2" d="M618.5,401.2c-2.6-1.4-5.2,0.1-6.2,2.7c-0.9,2.3,1.4,13.4,2.3,15.6c4.1,9.9,8.4,14.6,16.6,20.6
	c0.4,0.3,0.9-0.2,0.7-0.6c-3.1-5.9-5.4-17.8-6.1-26.9c-0.2-2.2,0.1-14.3-3.2-13.1C621.5,400,619.5,401.8,618.5,401.2z"/>
<g>
	<path class="st1" d="M664.5,389.6c0,0-1.5-0.5-4.3-1.4c-0.7-0.2-1.4-0.5-2.2-0.7s-1.7-0.5-2.6-0.7c-0.9-0.3-1.9-0.5-3-0.8
		c-1.1-0.2-2.2-0.5-3.4-0.8s-2.4-0.6-3.7-0.8c-1.3-0.2-2.6-0.5-4-0.7c-1.4-0.3-2.8-0.5-4.2-0.7s-2.9-0.4-4.4-0.6
		c-3-0.3-6.1-0.6-9.3-0.7c-3.2-0.2-6.4-0.2-9.7-0.2c-3.2,0.1-6.5,0.1-9.7,0.4c-1.6,0.1-3.2,0.2-4.7,0.4c-1.6,0.2-3.1,0.4-4.6,0.5
		c-1.5,0.2-3,0.5-4.4,0.7s-2.9,0.4-4.2,0.7c-2.7,0.6-5.3,1.1-7.7,1.7c-1.2,0.3-2.3,0.6-3.4,0.9c-1.1,0.3-2.1,0.6-3,0.9
		c-1.9,0.6-3.6,1.1-4.9,1.6c-2.7,1-4.2,1.5-4.2,1.5s1.5-0.6,4.2-1.7c1.3-0.6,3-1.1,4.8-1.8c0.9-0.3,1.9-0.7,3-1s2.2-0.7,3.4-1
		c2.3-0.8,4.9-1.4,7.7-2c1.4-0.4,2.8-0.6,4.2-0.9c1.5-0.3,2.9-0.6,4.5-0.9c1.5-0.2,3.1-0.5,4.6-0.7c1.6-0.3,3.2-0.4,4.8-0.6
		c3.2-0.4,6.5-0.6,9.8-0.8c3.3-0.1,6.6-0.2,9.8-0.1c3.2,0,6.4,0.2,9.5,0.4c1.5,0.1,3.1,0.3,4.5,0.4c1.5,0.1,2.9,0.3,4.3,0.5
		c1.4,0.2,2.8,0.4,4.1,0.6s2.6,0.5,3.8,0.7s2.4,0.5,3.5,0.7c1.1,0.3,2.2,0.5,3.1,0.8c1,0.2,1.9,0.5,2.8,0.7c0.9,0.2,1.6,0.5,2.3,0.6
		c2.7,0.8,4.3,1.3,4.3,1.3L664.5,389.6z"/>
</g>
<path class="st2" d="M495.4,228.3c-0.3,5.1-1.3,10.3-3.2,15.2c-3.7,9.6-10.2,17.8-17.2,25.1c-3.4,3.6-7.4,7.2-11.9,7.5
	c0,0,2.7-7.4,2.6-10.7c-0.3-9.6,5-16.6,9.5-23.4c4.5-6.8,9.1-10,16.2-12.8C492.7,228.6,495.4,228.3,495.4,228.3z"/>
<path class="st2" d="M547.1,222.4c-5.7,0.9-7.5,8.4-10.1,13.5c-3.1,5.8-6.1,10-11,14.2c2.4,0.3,9-3.9,11.1-5
	c10.4-5.4,11.9-8,16.2-18.9C553.2,226.2,553.8,221.4,547.1,222.4z"/>
<path class="st2" d="M552.2,224.2c6.2,16.1,3.1,35.3-7.7,48.7l0.3-0.9c1.2-7.6-0.2-15.4-0.3-23.1c-0.1-7.7,0.9-15.6,5.4-21.6
	L552.2,224.2z"/>
<path class="st2" d="M556.8,265.8c3.3-3,4.5-7.5,5.5-11.9c1.4-6.3,2.5-12.7,2.1-19.1s-4.3-13.7-8.5-14.8c-2.3-0.6-4.7,2.6-4.9,5
	c-0.5,4.4,1.2,8.6,2.5,12.9C555.5,245.3,556.8,265.8,556.8,265.8z"/>
<path class="st0" d="M585.3,193.2c-27.3,6.1-62.9,17.2-87,31.5"/>
<path class="st2" d="M447.9,250.3c4.9-9.7,13.1-17.5,22.7-22.4s32.6-5.3,32.6-5.3c-5,8-13,13.8-21.6,17.8s-14.8,4.7-24,7
	L447.9,250.3z"/>
<path class="st2" d="M502.6,222.6c6.9,17.5,1.7,39.1-12.5,51.4c0,0-5.8-22.4-2.3-29.9C491.4,236.5,502.6,222.6,502.6,222.6z"/>
<path class="st0" d="M531.6,179.1c3.5,2.7,10.7,7.9,18.4,11.3c8.9,3.9,18.2,5.8,19.2,6.7"/>
<path class="st2" d="M515.9,161.6c1.6,4.9,8.7,10.8,12,14.7l3.7,2.8c0.2-15-9.7-27.4-24.1-31.8C507.5,147.3,513.7,154.7,515.9,161.6
	z"/>
<path class="st2" d="M528.9,177.8c-0.5-1.6-1.9-2.2-2.8-2.9c-9.5-7.4-19.8-10.1-31.5-7.2l-6.4,2c2.7-0.6,5.3,1.5,7.6,3.1
	c6.7,4.7,16.1,5.4,24.2,4.1L528.9,177.8z"/>
<path class="st2" d="M592.9,169.6c1.5-3.2,6.5-11.3,8.6-14.1c2.6-3.4,5.7-6.4,9-9.2c2.9-2.5,6-4.8,9.2-7c0,0-1.4,4.9-2,6.4
	c-1.2,2.8-2.4,5.6-4,8.2c-3.7,6.2-9.5,11.1-16.2,13.7L592.9,169.6z"/>
<g>
	<g>
		<path class="st6" d="M860.9,307.3c-0.6,16.3,0.1,32.7,1.9,49c0.2,1.9,3.2,1.9,3,0c-1.8-16.2-2.5-32.6-1.9-49
			C864,305.4,861,305.4,860.9,307.3L860.9,307.3z"/>
	</g>
</g>
<path class="st2" d="M514.4,177.4c-3.1-0.5-9.8,2.8-12.3,4.6c-3,2.2-12.6,7.8-12.6,7.8c11.3-0.4,18.3-0.6,28-6.4
	c3.1-1.8,17.6-3.6,14.1-4.4C527.8,178.4,518,176.3,514.4,177.4z"/>
<path class="st0" d="M572.6,156.9c-25-19.5-58.7-44.2-90.2-48c-2.4-0.3-5-0.4-6.9,1.1"/>
<path class="st2" d="M477.8,109.5c-1.4-3.4-5.4-8.2-8.3-10.6s-6.4-4-9.9-5.4c-5.3-2.2-20.5-9.7-20.5-9.7c5.2,4.5,6.3,13.2,11.5,18.2
	C458.5,109.6,477.8,109.5,477.8,109.5z"/>
<path class="st2" d="M473.4,108.4l-2.3-0.7c-3.3-2-25.4-1.1-37,11.9c-2.9,3.3-4.7,6.7-6.9,11l-1.8,4.7c13.9-2.9,26.6-11.2,34.9-22.7
	l0.2,0.2c-2.1,2.8-5.5,9.4-6.4,12.8c-2.8,10-17.9,23.1-17.9,23.1c9.7-1.9,18.5-7.4,25.2-14.5s11.5-16.1,14.6-25.5L473.4,108.4z"/>
<g>
	<path class="st1" d="M831.3,372.9c0,0,0-0.8,0.1-2.3c0-0.7,0-1.5,0-2.5s-0.1-2.1-0.2-3.3c-0.1-1.2-0.2-2.5-0.4-3.9
		s-0.4-2.8-0.6-4.3c-0.5-3-1.2-6.2-1.9-9.4c-0.4-1.6-0.7-3.2-1.1-4.8c-0.4-1.6-0.7-3.2-0.9-4.7c-0.4-3-0.8-5.9-0.9-8.4
		c-0.1-2.5,0-4.5,0.2-6c0.1-0.7,0.2-1.3,0.3-1.6c0.1-0.4,0.1-0.6,0.1-0.6s0,0.2-0.1,0.6s-0.1,0.9-0.2,1.6c-0.1,1.4-0.1,3.5,0.1,5.9
		c0.2,2.4,0.8,5.2,1.4,8.2c0.3,1.5,0.7,3,1.1,4.6c0.4,1.5,0.9,3.1,1.3,4.7c0.9,3.2,1.7,6.3,2.4,9.4c0.3,1.5,0.6,3,0.9,4.4
		c0.3,1.4,0.5,2.7,0.6,4c0.2,1.2,0.3,2.4,0.4,3.4c0.1,1,0.2,1.9,0.2,2.7c0,1.4,0.1,2.3,0.1,2.3L831.3,372.9z"/>
</g>
<path class="st2" d="M589.1,177.3c0.1-5.2,2.1-19.1,3.3-24.1c1.5-6.1,3.9-12,6.7-17.7c2.5-5.1,5.2-10.1,8.2-14.9
	c0,0,1.1,7.5,1.1,9.9c0,4.5,0.1,9-0.5,13.5c-1.4,10.5-6.3,20.6-13.8,28.1L589.1,177.3z"/>
<path class="st4" d="M822.2,472.6c-0.2,1.5-1.1,2.8-2.4,3.5l-14,7.5c-1.2,0.6-2.6-0.3-2.4-1.6c2.3-21,7.9-41.5,13.4-61.9
	c7.4-27.3,14.8-54.6,22.2-81.9c5.4-20.1,11-40.4,20.7-58.7c0.5-1,2-0.7,2.2,0.4c0,0,3.7,3.7,3.7,6.2
	C865.6,292,828.2,415.5,822.2,472.6z"/>
<path class="st2" d="M827.6,316.1c-0.1-3.4-3.7-7.1-8.1-4.9c-1.2,0.6-2.7,2.2-3.3,3.4c-3.5,7.3-2.9,15.5-5.7,23.1
	c-2.5,6.7-6,13.5-11.6,18.1c-0.2,0.2,0,0.5,0.3,0.3c11.8-6.9,21.7-16.3,26.5-28.6C825.5,327.5,827.7,322.5,827.6,316.1z"/>
<path class="st2" d="M822.8,313.6c0.1-4.8-4.6-8.8-9.2-10.4c-3.6-1.3-5.2-2.3-9-1.6c-4,0.7-6.7,4-8.9,7.5
	c-6.2,9.6-9.5,14.1-16.7,14.4c11.9,6.3,28.2-13.2,28.1-13.2c-7.2,6.3-8.3,11.4-12.5,18.9c-3.7,6.6-9.6,12.6-16.7,15.1
	c-0.1,0-0.1,0.2,0,0.2C798.2,342.3,822.6,321.9,822.8,313.6z"/>
<g>
	<path class="st1" d="M755.8,148.4c0,0,0.8-0.9,2.3-2.6c1.5-1.6,3.6-4,6-6.9c4.9-5.8,11.1-13.7,16.1-22.6c1.2-2.2,2.4-4.4,3.4-6.7
		c1-2.3,2-4.5,2.8-6.7s1.5-4.4,2.1-6.5s1-4.1,1.4-6c0.2-0.9,0.3-1.8,0.4-2.7c0.1-0.9,0.2-1.7,0.3-2.4c0.1-1.5,0.3-2.9,0.3-4
		c0.1-1.1,0-2,0.1-2.6c0-0.6,0-0.9,0-0.9s0,0.3,0,0.9s0.1,1.5,0,2.6c0,1.1-0.1,2.5-0.2,4c-0.1,0.8-0.2,1.6-0.2,2.5
		c-0.1,0.9-0.2,1.8-0.4,2.7c-0.3,1.9-0.7,3.9-1.2,6s-1.2,4.3-1.9,6.6c-0.8,2.3-1.6,4.6-2.6,6.9s-2.1,4.6-3.3,6.9
		c-4.7,9.1-10.8,17.3-15.5,23.3c-2.4,3-4.4,5.4-5.9,7.1c-1.4,1.7-2.3,2.7-2.3,2.7L755.8,148.4z"/>
</g>
<g>
	<path class="st1" d="M746.7,263.7c0,0,0-0.1,0.1-0.4c0-0.3,0.1-0.7,0.2-1.3c0.2-1.2,0.6-2.9,1.3-4.9s1.8-4.4,3.2-7s3.3-5.4,5.4-8.2
		c2.1-2.9,4.5-5.9,7.1-9s5.2-6.4,7.9-9.9c5.5-6.9,11.5-14.2,17.7-21.3s12.6-14,18.7-20.4c3.1-3.2,6-6.2,8.9-9.1
		c2.9-2.8,5.7-5.4,8.5-7.7c5.5-4.5,10.7-7.4,14.4-9.1c1.9-0.9,3.4-1.5,4.4-1.9s1.6-0.6,1.6-0.6s-0.5,0.2-1.5,0.7
		c-1,0.4-2.5,1.1-4.3,2c-3.7,1.8-8.8,4.8-14.1,9.4c-2.7,2.3-5.4,4.9-8.2,7.8c-2.8,2.9-5.7,6-8.7,9.3c-5.9,6.5-12.1,13.6-18.1,20.8
		s-11.8,14.6-17.1,21.7c-1.3,1.8-2.6,3.5-3.9,5.2c-1.3,1.7-2.6,3.4-3.8,5c-2.5,3.2-4.8,6.2-6.8,9.1c-2,2.9-3.7,5.5-4.9,8
		c-1.3,2.5-2.2,4.7-2.8,6.5s-0.9,3.4-1,4.3c-0.1,0.5-0.1,0.9-0.2,1.2c0,0.3,0,0.4,0,0.4L746.7,263.7z"/>
</g>
<path class="st2" d="M805.7,392.3c0.4-4.8-3.7-8.3-7.2-7.5s-5.9,4.3-6.6,7.9c-0.8,3.5-0.2,7.2,0.2,10.8c1.6,14.1,1.3,28.4-1,42.3
	c12.5-13,17.5-30.1,18.1-48.1c5.3,16.6,15.8,31.5,35.4,36c-8.3-14.2-10-25.6-17.8-39.5c6.3,10.6,14.5,14.8,26.3,18.3
	c-9-10.8-21.6-30.5-23.4-32.2c-4.2-3.9-10.4,1.8-8.3,4.8C809.5,380.4,805.7,392.3,805.7,392.3z"/>
<path class="st2" d="M758.1,138.2c-4.6,63.9-8.4,127.8-11.3,191.8c-0.1,2.8-3.8,3.7-5.2,1.2l-4.2-7.6c-0.2-0.3-0.3-0.7-0.3-1
	c0.5-17.3-0.4-30.1,1.3-47.4c2-20,4-40,5.9-60c2.6-25.9,5.1-51.9,9.7-77.5C754.5,135,758.4,135.6,758.1,138.2L758.1,138.2z"/>
<path class="st2" d="M770.5,230c30.3,10.7,27.7-3.2,39.9,2.5c-2.1-3.4-15.4-8.2-20.7-8.5C765.1,222.6,770.5,230,770.5,230z"/>
<path class="st2" d="M768.2,223.2c0-0.1,0.1-0.2,0.1-0.3c4-7.3,16.4-12.1,24.7-12.3c3.4-0.1,14.3-2.4,18.5-5.9
	c7-5.9-11.3,14.4-19.4,18.7c-7.5,3.9-15.7,6.1-24,7.8c-1,0.2-1.8-0.7-1.6-1.7L768.2,223.2z"/>
<path class="st2" d="M773.1,239.4c4.1,2.6,11.6,12.4,15.5,25.7c1.1,3.8,4.5,6,7.9,7.8c0.4,0.2,0.2,0.9-0.3,0.8
	c-6.7-1-13-4.1-18.3-8.3c-6-4.7-10.6-10.2-13.5-17.5c-0.9-2.1-3.4-3.9-5.3-5.3c-0.1-0.1-0.1-0.2,0-0.2
	C760.2,241.7,768.3,236.4,773.1,239.4z"/>
<path class="st2" d="M853.8,253.3c-3.2-3.1-10.7,1-13.9,4c-3.2,3.1-5.7,6.8-8.9,9.9c-4.2,4.1-9.5,7-15.2,8.4
	c10.3-0.6,20.4-3,28.3-11c-7.6,17.9-25.5,28.2-28.3,30.7c13.4-4.4,22.2-4,32.7-13c-2.1,7.6-3.8,17.8-8.9,23.9
	c7.4-3.9,14.2-9,19.8-15.2c4.1-4.5,8-16.4,2.2-22c-1.5-1.4-4.8-1.7-6.8-1.7C854.8,267.5,859,258.3,853.8,253.3z"/>
<path class="st2" d="M800.1,187.5c-0.3-7.7,3.5-14.9,8.2-21s10.2-11.5,14.3-18c0,0-5.2,20.3-11.1,26.8c-2.5,2.8-4.1,4.7-8.2,7.6
	C802.8,183.3,800.1,187.5,800.1,187.5z"/>
<path class="st2" d="M801.5,191.1c3.6-11.1,7.8-24.3,8-35.9c0-2.8-2-9.8-3-12.5l-0.4-0.8c-8.8,13.2-13.1,28.4-6.9,45.4
	C799.4,187.7,801.3,191.8,801.5,191.1z"/>
<path class="st2" d="M793,95.1c7.8-3.5,14.4-9.7,18.3-17.2c-1.7,8-6,15.3-11.3,21.6c-5.3,6.2-11.7,11.5-18.3,16.5l1.9-8.4
	c0.1-0.5,0-1.1-0.3-1.5c-4.9-7.9-6.8-17.6-5.4-26.9c4.6,2.8,7.7,8,7.8,13.4c0,0,0.1,0.4,0,0c-1-10.9,5.7-22.7,10.6-28.3l0.4,7.7
	c2.2,8,2,14-0.8,21.9"/>
<path class="st2" d="M735.4,109.5c-0.8-11-10.6-27.7-10.6-27.7c-0.2,6.8-1,11.3,0,18.1c0.5,3.3,1.1,6.7,2.7,9.7s3.2,3.4,6.5,4.2
	C734,113.7,735.7,112.5,735.4,109.5z"/>
<path class="st2" d="M412.2,196.7c-6.6,3.3-7.9,5.5-12.2,11.7c-2.2,3.2-6.4,13.4-6.4,13.4c7.6-5.4,17.8-9.7,25.9-13.6
	c8.1-3.9,13.6-11.2,20.7-18.6C440.1,189.5,419.3,193.2,412.2,196.7z"/>
<path class="st2" d="M426.2,175.8c-4.2-2.9-9.3-3.9-14.4-4.4c-5.9-0.5-11.9-0.3-17.7,0.7c-5,0.8-6.1-4.7-14.3-2
	c2.9,1.1,6.3,4.1,7.7,5.9c12.1,15.1,32.2,18.5,50.2,11.4C437.7,187.5,430.2,178.6,426.2,175.8z"/>
<path class="st2" d="M13.6,266.5c12.4,0.4,21.2-4.2,28.3-11.1c2.1-2,1.4-3.1-2-3.5c-15.5-1.9-28.6,0.8-38.1,10.6
	c-1.7,1.7-2.1,2.9,1.4,3.4c1.1,0.2,2.2,0.6,3.2,0.7C8.8,266.7,11.2,266.6,13.6,266.5z"/>
<path class="st7" d="M26.3,243.3c10.9,4.9,20.5,4.1,29.3,0.6c2.6-1,2.3-2.2-0.5-3.8c-13.2-7.4-25.9-9.8-37.9-4.7
	c-2.2,0.9-2.9,1.8,0,3.5c0.9,0.5,1.7,1.3,2.7,1.8C21.9,241.7,24.1,242.5,26.3,243.3z"/>
<path class="st8" d="M48.7,44.1c12.7,2.4,20.5,9.3,26,18.3c1.6,2.6,0.6,3.7-2.9,3.4c-16.2-1.4-28.8-7.3-36-20
	c-1.3-2.3-1.4-3.6,2.2-3.4c1.2,0.1,2.3-0.2,3.4,0C43.9,42.9,46.3,43.6,48.7,44.1z"/>
<path class="st8" d="M88.4,27.6c0.5,12.9-2.7,22.1-7.7,29.5c-1.4,2.2-2.3,1.5-2.6-2c-1.7-16,0.1-29.7,7.1-39.7
	c1.3-1.8,2.1-2.2,2.5,1.4c0.1,1.1,0.5,2.2,0.5,3.4C88.4,22.6,88.4,25.1,88.4,27.6z"/>
<path class="st9" d="M36.2,341.5c3.6-4.6,3.7-9.6,2.4-14.8c-0.4-1.7-1.5-1.1-2.6-0.8c-4.3,1.2-4.4,1.2-5.7-3.1
	c-0.6-1.8-1.6-2-3.2-1.5c-4.4,1.5-10.5,6.5-10.6,13.5c0,4.6,0.2,9.1,1.3,13.6c0.5,1.9,1.3,2.4,3.2,1.9
	C26.9,348.5,31.8,345.2,36.2,341.5z"/>
<path class="st10" d="M372,125.3c-1.6-5.6-5.7-8.6-10.7-10.5c-1.6-0.6-1.8,0.6-2.1,1.6c-1.5,4.2-1.5,4.3-5.9,2.9
	c-1.8-0.6-2.6,0.1-3,1.7c-1.3,4.5-0.8,12.3,4.9,16.4c3.7,2.7,7.6,5.1,11.9,6.8c1.9,0.7,2.8,0.3,3.4-1.5
	C372.3,137,372.4,131.1,372,125.3z"/>
<path class="st9" d="M37.1,358.2c0.3-2.7-0.8-4.8-2.6-6.6c-0.6-0.6-0.9-0.1-1.2,0.3c-1.4,1.5-1.5,1.5-3.1,0.1
	c-0.7-0.6-1.1-0.4-1.6,0.2c-1.4,1.7-2.6,5.2-1,8c1.1,1.9,2.3,3.6,3.8,5.2c0.7,0.7,1.1,0.7,1.7,0C35,363.3,36.2,360.8,37.1,358.2z"/>
<path class="st10" d="M54.4,262.4c2.2-1.6,2.9-3.9,3-6.4c0-0.8-0.5-0.7-1.1-0.7c-2.1,0-2.1,0-2.2-2.1c0-0.9-0.5-1.1-1.3-1.1
	c-2.2,0.1-5.6,1.6-6.5,4.8c-0.6,2.1-1.1,4.2-1.1,6.3c0,0.9,0.3,1.3,1.2,1.3C49.2,264.4,51.9,263.5,54.4,262.4z"/>
<path class="st7" d="M681.5,27.4c-8.8,10.6-19.1,14.7-30,15.5c-3.2,0.2-3.6-1.2-1.5-4.2c9.8-14.4,21.6-23.3,36.8-24
	c2.7-0.1,4,0.4,1.9,3.7c-0.7,1-1,2.3-1.8,3.2C685.1,23.5,683.3,25.4,681.5,27.4z"/>
<path class="st2" d="M656.7,20.5C653.1,32,646.3,38.7,637.8,43c-2.5,1.3-3.2,0.3-2.6-2.9c3.1-14.8,9.7-25.9,21.5-31.6
	c2.1-1,3.3-1,2.7,2.3c-0.2,1.1-0.1,2.2-0.4,3.2C658.3,16.2,657.5,18.4,656.7,20.5z"/>
<path class="st2" d="M553.4,377.3c-4.3-1.6-14.2-2.4-18.7-1.6c-3.8,0.7-4.7-3.8-11-1.6c2.2,0.9,4.8,3.3,6,4.8
	c9.4,12.2,24.8,14.9,38.6,9C568.2,387.9,564.6,381.4,553.4,377.3z"/>
<path class="st2" d="M541.8,394.7c-7,3.8-14.2,10.8-15.8,18.8v10.6c4.6-8.7,14.2-14.4,23.4-17.1c9.3-2.7,13.4-10.1,20.8-18.4
	C570.1,388.6,549.3,390.6,541.8,394.7z"/>
<path class="st2" d="M760.4,102.1c-2.5,7.1-7.4,13.2-13.6,17.4c-6.2,4.2-21.9,6.5-21.9,6.5c2.7-5.9,7.7-10.6,13.2-14.1
	s9.7-4.6,15.8-6.9L760.4,102.1z"/>
<path class="st2" d="M737.2,112.4c5.9-10.6,6.8-31.9,6.8-31.9c-4.2,6.2-7.7,9.9-10.9,16.7c-1.5,3.4-3,6.8-3.3,10.5s-4.7,12-3.5,15.6
	C726.3,123.2,735.6,115.2,737.2,112.4z"/>
<path class="st2" d="M756.9,170.3c0,0.3-2.5-2.7-5.5-0.7c-1.7,1.1-1.8,3.7-1.3,5.7c0.6,2,1.8,3.7,2.9,5.4
	c4.5,6.6,8.1,13.8,10.6,21.4h0.1c2.9-10,0.7-20.2-4.1-29.6l0,0c5.9,8.7,16.3,12.5,27.5,9.6c0,0,0,0,0-0.1
	c-7.5-4.7-11.4-9.7-18.4-14.4v-0.1c5.5,3.1,10.5,3,17,1.7c0,0,0,0,0-0.1c-7.4-3.1-18.8-9.6-20.1-9.9c-3.1-0.8-4.7,3.4-3,4.5v0.1
	C757.5,164.2,756.9,168.3,756.9,170.3z"/>
<path class="st10" d="M462.2,343.8c1.7-2.8,1.5-5.6,0.4-8.5c-0.3-0.9-0.9-0.5-1.5-0.3c-2.3,1-2.4,1-3.4-1.4c-0.4-1-1-1-1.9-0.6
	c-2.4,1.1-5.5,4.4-5.1,8.3c0.3,2.6,0.7,5.1,1.6,7.6c0.4,1.1,0.9,1.3,1.9,0.9C457.3,348.4,459.9,346.2,462.2,343.8z"/>
<path class="st10" d="M757.3,21.9c-6.2-7.3-14.2-9.2-23.1-8.8c-2.8,0.1-2.3,2-2.2,3.9c0.5,7.4,0.5,7.4-6.9,8.2
	c-3.1,0.3-3.8,1.9-3.4,4.6c1,7.6,7,19.1,18.3,21.6c7.4,1.6,14.8,2.7,22.4,2.4c3.3-0.1,4.4-1.3,4.1-4.5
	C765.5,39.3,761.9,30.3,757.3,21.9z"/>
<path class="st9" d="M523.3,26.7c-3.6-4.6-3.7-9.6-2.4-14.8c0.4-1.7,1.5-1.1,2.6-0.8c4.3,1.2,4.4,1.2,5.7-3.1c0.6-1.8,1.6-2,3.2-1.5
	C536.8,8,542.9,13,543,20c0,4.6-0.2,9.1-1.3,13.6c-0.5,1.9-1.3,2.4-3.2,1.9C532.7,33.7,527.8,30.4,523.3,26.7z"/>
<path class="st9" d="M509.9,57.4c2.2-3.6,5.6-4.9,9.5-5.2c1.2-0.1,1.1,0.7,1.2,1.6c0.2,3.2,0.2,3.3,3.5,3.2c1.4,0,1.8,0.6,1.8,1.8
	c0.1,3.4-1.9,8.7-6.6,10.5c-3.1,1.1-6.3,2.1-9.6,2.4c-1.4,0.1-2-0.3-2-1.7C507.4,65.5,508.5,61.4,509.9,57.4z"/>
<path class="st9" d="M643,282.3c-1.5-2.3-3.7-3.2-6.2-3.4c-0.8-0.1-0.7,0.5-0.8,1c-0.1,2.1-0.2,2.1-2.3,2.1c-0.9,0-1.1,0.4-1.2,1.2
	c0,2.2,1.2,5.7,4.3,6.8c2,0.7,4.1,1.4,6.2,1.6c0.9,0.1,1.3-0.2,1.3-1.1C644.6,287.5,643.9,284.9,643,282.3z"/>
<path class="st9" d="M370.2,359.1c-0.4-5.8,2.4-10,6.4-13.6c1.3-1.1,1.9-0.1,2.6,0.8c2.9,3.4,2.9,3.5,6.5,0.7
	c1.5-1.1,2.4-0.8,3.5,0.6c2.8,3.7,5,11.3,1.1,17.1c-2.5,3.8-5.3,7.4-8.8,10.5c-1.5,1.3-2.5,1.3-3.7-0.2
	C373.9,370.2,371.7,364.7,370.2,359.1z"/>
<path class="st9" d="M788.6,379.3c-4-4.2-4.6-9.2-3.8-14.5c0.3-1.7,1.4-1.2,2.5-1c4.4,0.8,4.5,0.8,5.4-3.6c0.4-1.8,1.4-2.2,3-1.8
	c4.5,1.1,11,5.5,11.8,12.4c0.5,4.5,0.6,9.1-0.1,13.7c-0.3,2-1.1,2.6-3,2.2C798.6,385.4,793.4,382.6,788.6,379.3z"/>
<path class="st10" d="M713.4,419.1c2.3-3.8,2-7.5,0.5-11.4c-0.5-1.2-1.2-0.7-2-0.4c-3.1,1.3-3.2,1.3-4.6-1.8
	c-0.6-1.3-1.4-1.4-2.5-0.8c-3.2,1.5-7.3,5.8-6.8,11.1c0.4,3.4,1,6.8,2.2,10.1c0.5,1.4,1.2,1.7,2.5,1.1
	C706.9,425.2,710.3,422.3,713.4,419.1z"/>
<path class="st8" d="M63,13.1C72.7,26.4,75,39,73.7,51.2c-0.4,3.6-1.9,3.5-4.8,0.2C55.4,35.7,48.2,19.6,50.3,2.9
	c0.4-3,1.2-4.2,4.3-0.8c1,1.1,2.2,1.9,3.1,3.1C59.5,7.7,61.2,10.4,63,13.1z"/>
<g>
	<g>
		<path class="st6" d="M439.5,191.3c-5.8,12.8-12.4,25.2-19.8,37.1c-1,1.6,1.6,3.2,2.6,1.5c7.4-12,14-24.3,19.8-37.1
			C442.8,191,440.2,189.5,439.5,191.3L439.5,191.3z"/>
	</g>
</g>
<g>
	<g>
		<path class="st6" d="M505.8,222.2c1.7,9.7,2.7,19.4,2.7,29.2c0,8.9-0.2,18.3-5.5,25.8c-0.8,1.2,1.1,2.3,1.9,1.1
			c5.2-7.3,5.8-16.3,5.9-25.1c0.1-10.6-0.9-21.2-2.8-31.7C507.7,220.2,505.5,220.8,505.8,222.2L505.8,222.2z"/>
	</g>
</g>
<g>
	<path class="st6" d="M480.2,108.7c-0.9,11.8-4.6,26.9-5.5,38.6"/>
	<g>
		<path class="st6" d="M479,108.7c-1.1,13-4.4,25.7-5.5,38.6c-0.1,1.4,2.1,1.4,2.2,0c1.1-13,4.4-25.7,5.5-38.6
			C481.4,107.3,479.2,107.3,479,108.7L479,108.7z"/>
	</g>
</g>
<g>
	<g>
		<path class="st6" d="M573.3,388c1.8,9.8-2.2,18.1-6.4,26.7c-0.8,1.7,1.7,3.3,2.6,1.5c4.6-9.4,8.7-18.4,6.7-29.1
			C575.9,385.3,573,386.1,573.3,388L573.3,388z"/>
	</g>
</g>
<g>
	<g>
		<path class="st6" d="M720,131.3c1.6,14.4,0.5,28.7-3.3,42.6c-0.4,1.4,1.8,2,2.2,0.6c3.9-14.1,5-28.6,3.4-43.2
			C722.1,129.9,719.8,129.9,720,131.3L720,131.3z"/>
	</g>
</g>
<g>
	<g>
		<path class="st6" d="M864.6,361.5c1.9,0,1.9-3,0-3C862.6,358.5,862.6,361.5,864.6,361.5L864.6,361.5z"/>
	</g>
</g>
<g>
	<g>
		<path class="st6" d="M831.1,161.1c1.5,13.3,0.5,26.5-3.1,39.4c-0.3,0.9,1.2,1.3,1.4,0.4c3.6-13,4.6-26.3,3.1-39.8
			C832.5,160.2,831,160.2,831.1,161.1L831.1,161.1z"/>
	</g>
</g>
<polygon class="st11" points="876.2,503.6 878.4,498.5 883.9,497.2 879.7,493.6 880.3,488.1 875.5,491 870.4,488.8 871.6,494.2 
	867.9,498.4 873.5,498.8 "/>
<polygon class="st11" points="826.1,473 829.5,480.3 825.4,487.3 833.3,486.4 838.6,492.5 840.2,484.5 847.5,481.3 840.5,477.3 
	839.8,469.2 833.9,474.7 "/>
<polygon class="st11" points="763.9,502 767.6,514.8 759.3,525.2 772.5,525.5 779.6,536.7 784.1,524.1 796.8,520.6 786.4,512.5 
	787.1,499.2 776.2,506.7 "/>
<polygon class="st11" points="684.6,505 690.9,511.3 689.4,520.1 697.2,516 705,520.2 703.5,511.4 709.8,505.2 701.1,503.9 
	697.2,495.9 693.3,503.8 "/>
</svg>
