<?xml version="1.0" encoding="utf-8"?>
<!-- Generator: Adobe Illustrator 20.1.0, SVG Export Plug-In . SVG Version: 6.00 Build 0)  -->
<svg version="1.1" id="Layer_1" xmlns="http://www.w3.org/2000/svg" xmlns:xlink="http://www.w3.org/1999/xlink" x="0px" y="0px"
	 width="960px" height="560px" viewBox="0 0 960 560" style="enable-background:new 0 0 960 560;" xml:space="preserve">
<style type="text/css">
	.st0{fill:none;}
	.st1{fill:#B1AE83;}
	.st2{fill:#A34248;}
	.st3{fill:#999259;}
	.st4{fill:#FED965;}
</style>
<g>
	<path class="st0" d="M415.5,206.6c5.8,2.8,11.7,5.6,17.5,8.4C427.8,212.1,422,209.3,415.5,206.6z"/>
	<g>
		<path class="st1" d="M207.8,303.6L3.1,295.9L207.8,303.6z"/>
	</g>
	<g>
		<path class="st2" d="M0,256c29-24.8,118.2-59.9,154.8-65.7c59.1-9.5,189.2-13.5,260.7,16.3c-36-17.4-71.8-35.3-109.3-49.1
			c-55.2-20.3-113.3-31.4-171.6-38.4C108.3,115.9,24.2,106,0,106.3V256z"/>
	</g>
	<g>
		<path class="st2" d="M0,106.3"/>
	</g>
</g>
<g>
	<path class="st3" d="M0,458c35.3-46.7,83.1-89.5,133.5-118.9c23.9-13.9,48.7-25.7,74.4-35.5c111.6-42.6,237.5-47.2,355.8-25.2
		c-20.1-8.2-39.8-18.1-60.1-28.6c-18.7-9.6-37.7-19.6-57.8-28.9c-4.2-1.9-8.4-3.9-12.6-5.9c-5.9-2.8-11.7-5.6-17.5-8.4
		c-71.5-29.8-185-38.8-250.2-30.8c-76.2,9.4-135.1,36.8-164,61.6c-0.5,0.3-0.9,1.2-1.3,2.6"/>
</g>
<g>
	<path class="st3" d="M0,240v218"/>
</g>
<g>
	<path class="st1" d="M960,236.3c-38.8-9-76-0.2-116.8,13.5c-45.8,15.4-96.3,36.9-158.8,46.2c-44.6,6.6-83.2-2.3-120.8-17.6
		c-67.1-12.5-168.3-21.6-269.6,0.2c-31.4,6.8-63,15.7-91.8,27.2c-47.4,18.9-57,27.2-75.4,37.3c-19.4,10.6-52.5,36.6-68.1,51.1
		l901.2,3V236.3z"/>
</g>
<polygon class="st4" points="145.6,232.1 141.8,241.1 147,249.3 137.5,248.5 131.4,256 129.2,246.5 120.2,243 128.4,237.9 
	129,228.2 136.3,234.6 "/>
<polygon class="st4" points="223.1,197.6 213.4,198.5 208.5,206.9 204.8,198.1 195.3,196.2 202.7,189.8 201.7,180.2 210,185.1 
	218.8,181.1 216.6,190.5 "/>
<polygon class="st4" points="245.6,229.4 243.4,224.3 237.9,223 242.1,219.4 241.5,213.9 246.3,216.9 251.4,214.6 250.2,220.1 
	253.9,224.2 248.3,224.6 "/>
<polygon class="st4" points="311.3,200.3 304.4,207.2 306,216.8 297.5,212.3 288.9,216.9 290.6,207.3 283.7,200.5 293.2,199.1 
	297.5,190.3 301.7,199 "/>
<polygon class="st4" points="80.8,262.5 67.5,271.1 66.8,286.9 54.7,276.9 39.6,281.4 45.4,266.6 36.7,253.5 52.4,254.4 62.2,241.8 
	66,257.1 "/>
<polygon class="st4" points="159.9,207.3 157.3,209.9 157.9,213.4 154.8,211.7 151.7,213.4 152.3,209.9 149.7,207.4 153.2,206.9 
	154.8,203.7 156.4,206.9 "/>
<polygon class="st4" points="378.2,218.8 374.5,231.6 382.9,242.1 369.7,242.4 362.6,253.6 358.1,241 345.3,237.5 355.8,229.4 
	355,216 365.9,223.6 "/>
<polygon class="st4" points="441.1,241 438.6,243.6 439.2,247.1 436.1,245.4 432.9,247.1 433.5,243.6 431,241.1 434.5,240.6 
	436.1,237.4 437.6,240.6 "/>
</svg>
