<?xml version="1.0" encoding="utf-8"?>
<!-- Generator: Adobe Illustrator 20.1.0, SVG Export Plug-In . SVG Version: 6.00 Build 0)  -->
<svg version="1.1" id="Layer_1" xmlns="http://www.w3.org/2000/svg" xmlns:xlink="http://www.w3.org/1999/xlink" x="0px" y="0px"
	 width="75px" height="77px" viewBox="0 0 75 77" style="enable-background:new 0 0 75 77;" xml:space="preserve">
<style type="text/css">
	.st0{fill:#B2AF84;}
	.st1{fill:#CD6666;}
	.st2{fill:#FFCC67;}
</style>
<path class="st0" d="M50.9,13.2c3-1.3,5.9-2.5,8.9-2.3c2.9,0.2,5.6,1.3,7.6,3.8c1.9,2.4,3.3,4.9,3.3,8c0,0.6,0.3,1.2,0.9,1.5
	c3.6,2.5,4.4,8.4,2.1,12.6c-1.4,2.6-2.8,5.2-5.7,6.3c-0.4,0.2-1,0.4-0.9,1c0.1,0.5,0.6,0.6,1,0.7c1.4,0.4,1.7,1.9,2.5,2.9
	c1.1,1.3,1.6,3.1,1.5,4.9c-0.1,0.8,0,1.7,0,2.5c-0.1,4.8-3.7,9.3-8.2,9.9c-1,0.1-1.7,0.5-2.2,1.5c-1.9,3.8-5.2,5-9.2,5.1
	c-3.9,0.1-7-1.6-9.9-4c-0.9-0.8-1.1-0.6-1.4,0.5c-0.9,3.3-2.7,6.1-5.7,7.8c-3.9,2.3-9.4,1-12-2.7c-1.3-1.8-2.7-3-4.9-3.5
	c-8.3-1.9-9.8-12-5.3-17.1c0.3-0.3,0.8-0.6,0.5-1.1c-0.2-0.4-0.8-0.3-1.2-0.3c-5.9,0.2-9.9-2.8-12-8.2c-1.3-3.3-1.1-6.8,1.3-9.7
	C2.7,32.6,2.8,32,2.6,31c-1-4.5-0.7-8.9,3.1-12.1c3-2.6,6.5-3.9,10.5-2.2c1.3,0.6,1.9,0.1,1.8-1.3c-0.2-3.4,0.9-6.3,2.8-9.1
	c2.1-3.1,7.4-5.3,11-4.2C33,2.4,34,2.2,35,1.6c5.3-3.5,10.6-0.6,13.5,3.8C50,7.6,51.6,10.1,50.9,13.2z M9.4,23.2l-0.1,0l-0.1,0.1
	c-0.1,0.2-0.2,0.4-0.3,0.6c-0.1,0.1-0.3,0.1-0.4,0.2c-2,2.3-1.5,4.8-0.7,7.3c0.4,1.3,0.4,2.2-0.6,3.1c-2.4,2.1-3,4.8-2.1,7.8
	c1,3.1,3.3,4.6,6.4,5.1c3.1,0.5,6.1,0,9.1-0.3c0.7-0.1,1.5-0.4,1.6,0.7c-2.6,2.7-4.9,5.6-5.8,9.4c-0.5,2.3-0.4,4.5,1.4,6.2
	c1.6,1.5,3.6,1.4,5.5,1.4c1.1,0,1.9,0.5,2,1.2c0,1.3,0.9,2.1,1.6,3c1.8,2.4,4.5,3.1,7,1.3c3.5-2.4,4.8-6.1,5.5-10.1
	c0.3-1.9,0.7-5.4,0.9-7.3c0.6,0.1,0.8,1.8,1.1,2.5c0.9,1.8,1.8,3.6,2.7,5.4c0.7,1.5,1.6,3.1,2.9,4.1c2.8,2.2,6.1,2.5,9.3,1
	c1.2-0.5,2.4-1.6,2.5-3.2c0.1-1.7,1.1-2.3,2.5-2.1c3,0.3,4.8-2.1,4.9-4.8c0.2-4.8-2.8-7.8-6.1-10.6c-1-0.8-2.3-1.4-2.9-2.7
	c0.9-0.3,1.8-0.5,2.7-0.8c1.3-0.5,2.7-0.7,3.9-1.5c2.1-1.3,3.7-3.1,5-5.3c1.6-2.8,1.4-5.9-1.1-8c-1.2-1-1.7-2.1-1.6-3.7
	c0.4-5.6-4.1-6.9-8.2-6.8c-2.7,0.1-4.6,2-6.6,3.5c-1.6,1.1-2.5,3-4.5,3.9c0-2.7-0.1-5.3,0-7.8c0.2-3.6-1.2-6.4-4.1-8.4
	c-2-1.4-4.4-1.7-6.2-0.3c-1.5,1.1-2.9,1.1-4.6,0.6c-2.6-0.7-5.1-0.3-7.2,1.6c-1.6,1.5-2.2,3.6-2.3,5.8c-0.2,3,0.6,5.8,2,8.4
	c0.2,0.3,0.4,0.7,0.1,1.1c-0.4,0.4-0.9,0.3-1.2,0c-1.2-1.2-2.8-1.5-4.2-2.1c-2.9-1.2-5.9-1-8.9,0c-0.3,0-0.5,0.1-0.4,0.5
	C9.7,23,9.6,23.1,9.4,23.2z M50.5,14.4c0,0.1,0.1,0.2,0.1,0.2c0,0-0.1,0.1-0.1,0c0-0.1-0.1-0.1-0.1-0.2
	C50.4,14.4,50.5,14.4,50.5,14.4z"/>
<g>
	<path class="st1" d="M40.2,54.3C40.2,54.3,40.2,54.3,40.2,54.3C40.2,54.3,40.2,54.3,40.2,54.3L40.2,54.3z"/>
	<path class="st1" d="M57.2,42.4C57.2,42.4,57.2,42.4,57.2,42.4C57.2,42.4,57.3,42.4,57.2,42.4L57.2,42.4z"/>
	<path class="st1" d="M40.1,39.2l-1.4,0.5c0.1,0.1,0.1,0.2,0.1,0.3C39.5,39.7,40.2,39.3,40.1,39.2z"/>
	<g>
		<path class="st1" d="M49.5,40.1c0,0-0.1-0.2-0.4-0.4c0,0,0,0,0,0C49.4,40.1,49.6,40.3,49.5,40.1z"/>
		<path class="st1" d="M67.7,26.8c-1.2-1-1.7-2.1-1.6-3.7c0.4-5.6-4.1-6.9-8.2-6.8c-2.7,0.1-4.6,2-6.6,3.5c-1.6,1.1-2.5,3-4.5,3.9
			c0-2.7-0.1-5.3,0-7.8c0.2-3.6-1.2-6.4-4.1-8.4c-2-1.4-4.4-1.7-6.2-0.3c-1.5,1.1-2.9,1.1-4.6,0.6c-2.6-0.7-5.1-0.3-7.2,1.6
			c-1.6,1.5-2.2,3.6-2.3,5.8c-0.2,3,0.6,5.8,2,8.4c0.2,0.3,0.4,0.7,0.1,1.1c-0.4,0.4-0.9,0.3-1.2,0c-1.2-1.2-2.8-1.5-4.2-2.1
			c-2.9-1.2-6.6-2.6-9.3-0.3c-0.2,0.2-1.7,1.7-1.8,1.8c-2,2.3-1.2,5-0.4,7.5c0.4,1.3,0.4,2.2-0.6,3.1c-2.4,2.1-3,4.8-2.1,7.8
			c1,3.1,3.3,4.6,6.4,5.1c3.1,0.5,6.1,0,9.1-0.3c0.7-0.1,1.5-0.4,1.6,0.7c-2.6,2.7-4.9,5.6-5.8,9.4c-0.5,2.3-0.4,4.5,1.4,6.2
			c1.6,1.5,3.6,1.4,5.5,1.4c1.1,0,1.9,0.5,2,1.2c0,1.3,0.9,2.1,1.6,3c1.8,2.4,4.5,3.1,7,1.3c3.5-2.4,4.8-6.1,5.5-10.1
			c0.3-1.8,0.9-4.8,1.1-6.7c0,0,0.1,1.5,0.2,2.1c0.2,1.9,1.4,2.7,2.3,4.6c0.7,1.5,2.7,3.7,4,4.6c2.8,2.2,6.1,2.5,9.3,1
			c1.2-0.5,2.4-1.6,2.5-3.2c0.1-1.7,1.1-2.3,2.5-2.1c3,0.3,4.8-2.1,4.9-4.8c0.2-4.8-2.8-7.8-6.1-10.6c-1-0.8-2.2-1.4-2.8-2.7
			c-0.1,0,0-0.1,0-0.1c0,0,1.8-0.4,2.6-0.7c1.3-0.5,2.7-0.7,3.9-1.5c2.1-1.3,3.7-3.1,5-5.3C70.5,32,70.2,28.9,67.7,26.8z"/>
	</g>
</g>
<path class="st2" d="M42,37c1.8-0.1,3.4-1.1,5.1-1.6c2.2-0.6,4.4-1.4,6.4-2.5c0.4-0.2,0.8-0.5,0.7-1c-0.1-0.6-0.6-0.8-1.1-0.8
	c-0.6-0.1-1.2,0.2-1.7,0.4c-1.1,0.4-1.8,1.3-3,1.7C46,34,43.6,35,41.2,36c-0.3,0.1-0.7,0.6-1,0.1c-0.2-0.4,0.1-0.7,0.4-0.9
	c2.7-2.4,4.7-5.3,6.9-8.2c0.4-0.5,1.2-1.3,0.3-1.8c-0.7-0.5-1.7-0.3-2.4,0.4c-0.2,0.2-0.4,0.6-0.5,0.9c-0.8,2.6-2.1,4.8-4,6.7
	c-0.7,0.7-1.7,1.8-2.2,1.5c-0.9-0.6-0.5-2-0.4-3.1c0-0.2,0.2-0.4,0.2-0.6c0.6-1.5,1.2-3.1,1.8-4.6c0.4-1.1,0.4-2.2,0-3.2
	c-0.1-0.3-0.1-0.7-0.6-0.6c-0.3,0-0.7,0.1-0.8,0.4c-0.6,1.5-1.5,3-1.2,4.7c0.1,1,0,2-0.2,3c0.2,0.7,0,1.3-0.3,1.9
	c-0.2,0.4-0.2,1.1-0.8,1c-0.5-0.1-0.7-0.7-0.7-1.2c-0.5-2.8-1.8-5.6-1.2-8.6c0.2-0.9-0.2-1.6-1-2.1c-0.6-0.2-1.2-0.3-1.3,0.6
	c-0.1,0.9-0.4,2,0.1,2.8c1.5,2.6,1.8,5.6,2.6,8.4c0.2,0.7,0.1,1.6-0.4,1.2c-1.5-1-4.7-5-6.4-7.3c-0.5-0.7-1.8-1-2.6-0.2
	c-0.7,0.8,0,1.5,0.6,2.1c1.6,1.5,3.3,2.5,4.9,4c0.6,0.5,2,2.1,3.2,2.7c-0.2,0.2-0.4,0.3-0.6,0.2c-2.7-0.2-3.4,0.1-8-1.2
	c-1.2-1-3-0.9-4.6-0.3c-0.4,0.2-1,0.4-1,1c0,0.6,0.5,0.7,0.9,0.9c1,0.5,2.1,0.5,3.2,0.5c2.9,0.1,5.9,0.1,8.8,0.3
	c0,0,1.1,0.1,1.3,0.2c0.2,0.1,0.1,0.2,0,0.3c-0.1,0.4-1.4,0.7-1.4,0.7c-2.6,0.8-5.3,2.5-7.9,3c-0.7,0.1-1.4,0.6-2,1.1
	c-0.5,0.4-1.3,1.1-0.9,1.7c0.4,0.6,1.3,0.3,1.9,0c1.8-0.9,3.5-1.8,5.2-2.7c1.5-0.8,3-1.7,4.6-2.2c0,0,0.7-0.7,1-0.7l0.2,0.5
	c-0.1,0.3-0.2,0.7-0.4,1c-1.3,1.9-2.9,3.6-4.4,5.4c-0.7,0.8-1.4,1.6-1.9,2.5c-0.4,0.6-0.6,1.7,0,2.1c0.7,0.4,1.4-0.3,1.8-1
	c0.6-1,1.1-2,1.7-3c1.3-2,2.7-4,4.1-5.9c0.2,0.1,0.3,0.1,0.5,0.2c-0.9,3,0,6.4-1.8,9.2c-0.3,0.5-0.4,1.1-0.4,1.7
	c-0.1,0.9-0.5,2,0.3,2.5c0.8,0.5,1.1-0.9,1.9-1.1c0.9-2.4,0.1-4.8,0.3-7.2c0.1-1.4,0.4-2.7,1.1-4.4c1.2,3.1,2.5,5.7,2.8,8.6
	c0.2,1.7,0.5,1.9,2,1.4c-0.2-2-0.8-3.8-1.9-5.6c-0.7-1-0.4-2.6-1.3-3.6c0-0.1,0.1-0.3,0.2-0.4c0.2-0.2,0.6-0.1,0.8,0
	c0.4,0.4,0.8,0.9,1.2,1.3c0.4,0.9,1.2,1.5,1.9,2c1.4,1.2,2.3,3.1,4.3,3.6c0.5,0.1,0.9,1.1,1.5,0.1c0.4-0.8,0.2-1.6-0.6-1.9
	c-1.3-0.6-2.3-1.4-3.3-2.3c-1.8-1.6-3.6-3.1-5.3-4.9c0.5-0.4,1-0.3,1.4-0.2c1.5,0.3,3.1,0.6,4.6,0.8c2.4,0.4,4.8,1.3,7.4,0.8
	c0.2-0.6,0-1-0.5-1.4c-1.4-1.5-3.2-1.4-5-1.5c-2.3-0.1-4.7,0.9-6.9-0.5C41.3,37.3,41.7,37,42,37z"/>
</svg>
