<?xml version="1.0" encoding="utf-8"?>
<!-- Generator: Adobe Illustrator 20.1.0, SVG Export Plug-In . SVG Version: 6.00 Build 0)  -->
<svg version="1.1" id="Layer_1" xmlns="http://www.w3.org/2000/svg" xmlns:xlink="http://www.w3.org/1999/xlink" x="0px" y="0px"
	 width="42.3px" height="28.9px" viewBox="0 0 42.3 28.9" style="enable-background:new 0 0 42.3 28.9;" xml:space="preserve">
<style type="text/css">
	.st0{fill:#FFD966;}
</style>
<g>
	<g>
		<path class="st0" d="M7.7,0c-0.5,0-1,0.2-1.4,0.6L0.6,6.3C0.2,6.7,0,7.2,0,7.8s0.2,1.1,0.6,1.4l19.1,19.1c0.4,0.4,0.9,0.6,1.4,0.6
			s1.1-0.2,1.4-0.6L41.7,9.2c0.4-0.4,0.6-0.9,0.6-1.4s-0.2-1.1-0.6-1.4L36,0.6C35.6,0.2,35.1,0,34.5,0c-0.5,0-1.1,0.2-1.4,0.6
			l-12,12l-12-12C8.8,0.2,8.3,0,7.7,0L7.7,0z"/>
	</g>
</g>
</svg>
