<?xml version="1.0" encoding="utf-8"?>
<!-- Generator: Adobe Illustrator 20.1.0, SVG Export Plug-In . SVG Version: 6.00 Build 0)  -->
<svg version="1.1" id="Layer_1" xmlns="http://www.w3.org/2000/svg" xmlns:xlink="http://www.w3.org/1999/xlink" x="0px" y="0px"
	 width="53.7px" height="53.2px" viewBox="0 0 53.7 53.2" style="enable-background:new 0 0 53.7 53.2;" xml:space="preserve">
<style type="text/css">
	.st0{fill:#CD6666;}
	.st1{fill:#FCF9CE;}
</style>
<path class="st0" d="M40.4,12.3c2.3-0.3,4.6-0.5,6.6,0.2c2,0.7,3.6,2,4.5,4.1c0.8,2,1.3,4,0.7,6.2c-0.1,0.4,0,0.9,0.3,1.2
	c2,2.4,1.4,6.7-1,9.1c-1.5,1.5-2.9,3-5.2,3.3c-0.3,0-0.8,0.1-0.8,0.5c0,0.4,0.3,0.5,0.6,0.7c0.9,0.6,0.8,1.6,1.2,2.5
	c0.5,1.1,0.5,2.4,0.1,3.7c-0.2,0.6-0.3,1.1-0.5,1.7c-1,3.3-4.4,5.7-7.6,5.2c-0.7-0.1-1.3,0-1.8,0.6c-2,2.3-4.5,2.4-7.3,1.7
	c-2.7-0.7-4.5-2.5-6-4.7c-0.5-0.7-0.7-0.7-1.1,0.1c-1.2,2.1-3,3.6-5.4,4.3c-3.1,0.8-6.6-1.1-7.7-4.2c-0.5-1.5-1.3-2.6-2.7-3.3
	C1.9,42,2.8,34.7,6.9,32.1c0.2-0.1,0.7-0.3,0.6-0.7C7.4,31.1,7,31.1,6.7,31c-4.1-1-6.3-3.8-6.7-8c-0.2-2.5,0.6-4.9,2.8-6.4
	c0.6-0.4,0.7-0.8,0.8-1.5c0.2-3.3,1.3-6.3,4.5-7.8c2.6-1.2,5.3-1.4,7.7,0.5c0.8,0.7,1.3,0.4,1.5-0.5c0.5-2.4,1.9-4.2,3.7-5.7
	c2.1-1.7,6.1-2.2,8.4-0.8c0.8,0.5,1.5,0.5,2.3,0.3c4.3-1.4,7.4,1.6,8.6,5.2C40.9,8.2,41.5,10.2,40.4,12.3z M9.8,11L9.8,11l-0.1,0
	c-0.1,0.1-0.2,0.2-0.3,0.3c-0.1,0-0.2,0-0.3,0.1c-1.8,1.2-2,3-1.9,4.9c0,0.9-0.1,1.6-1,2c-2.1,1-3,2.7-2.9,4.9
	c0.1,2.3,1.4,3.8,3.4,4.7c2,0.9,4.2,1.2,6.4,1.6c0.5,0.1,1.1,0,0.9,0.8c-2.3,1.3-4.5,2.9-5.8,5.4c-0.8,1.5-1.2,3-0.2,4.6
	c0.8,1.4,2.2,1.7,3.5,2c0.8,0.2,1.2,0.7,1.1,1.2c-0.2,0.9,0.2,1.6,0.5,2.3c0.8,2,2.5,3,4.6,2.3c2.9-1,4.5-3.3,5.8-5.9
	c0.6-1.3,1.6-3.6,2.1-4.9c0.4,0.2,0.2,1.4,0.2,1.9c0.2,1.4,0.5,2.8,0.8,4.3c0.2,1.2,0.5,2.5,1.2,3.4c1.5,2,3.7,2.9,6.2,2.5
	c0.9-0.2,2-0.6,2.3-1.8c0.4-1.2,1.2-1.3,2.1-1c2,0.8,3.7-0.5,4.3-2.3c1.1-3.3-0.4-5.9-2.1-8.5c-0.5-0.8-1.3-1.4-1.4-2.4
	c0.7,0,1.3,0,2,0c1-0.1,2,0,3-0.3c1.7-0.5,3.2-1.4,4.5-2.7c1.7-1.6,2.1-3.8,0.8-5.7c-0.6-0.9-0.7-1.8-0.4-2.8
	c1.3-3.8-1.4-5.6-4.4-6.3c-1.9-0.5-3.5,0.5-5.2,1.1c-1.3,0.5-2.3,1.6-3.8,1.8c0.5-1.8,1-3.6,1.5-5.4c0.8-2.4,0.4-4.6-1.1-6.6
	c-1.1-1.4-2.7-2-4.2-1.5c-1.3,0.5-2.2,0.2-3.3-0.5c-1.6-1-3.5-1.2-5.2-0.3C21.8,5.2,21,6.5,20.5,8c-0.7,2-0.7,4.1-0.3,6.2
	c0.1,0.3,0.2,0.6-0.1,0.8c-0.3,0.2-0.7,0-0.8-0.3c-0.6-1-1.6-1.6-2.5-2.3c-1.8-1.4-3.9-1.9-6.1-1.7c-0.2,0-0.4,0-0.4,0.2
	C10.1,11,10,11,9.8,11z M39.9,13c0,0.1,0,0.1,0,0.2c0,0-0.1,0-0.1,0c0-0.1,0-0.1,0-0.2C39.9,13,39.9,13,39.9,13z"/>
<g>
	<g>
		<path class="st1" d="M25,38.5C25,38.5,25,38.5,25,38.5C25,38.5,25,38.5,25,38.5L25,38.5z"/>
		<path class="st1" d="M39.1,33.6C39.1,33.6,39.1,33.6,39.1,33.6C39.1,33.6,39.1,33.6,39.1,33.6L39.1,33.6z"/>
		<path class="st1" d="M27.9,28.1l-1,0.1c0,0.1,0,0.2,0,0.3C27.4,28.3,27.9,28.1,27.9,28.1z"/>
		<g>
			<path class="st1" d="M34.2,30.5c0,0-0.1-0.2-0.2-0.3c0,0,0,0,0,0C34.1,30.5,34.2,30.6,34.2,30.5z"/>
			<path class="st1" d="M49.4,24.9c-0.6-0.9-0.7-1.8-0.4-2.8c1.3-3.8-1.4-5.6-4.4-6.3c-1.9-0.5-3.5,0.5-5.2,1.1
				c-1.3,0.5-2.3,1.6-3.8,1.8c0.5-1.8,1-3.6,1.5-5.4c0.8-2.4,0.4-4.6-1.1-6.6c-1.1-1.4-2.7-2-4.2-1.5c-1.3,0.5-2.2,0.2-3.3-0.5
				c-1.6-1-3.5-1.2-5.2-0.3C21.8,5.2,21,6.5,20.5,8c-0.7,2-0.7,4.1-0.3,6.2c0.1,0.3,0.2,0.6-0.1,0.8c-0.3,0.2-0.7,0-0.8-0.3
				c-0.6-1-1.6-1.6-2.5-2.3c-1.8-1.4-4-3.1-6.3-2.1c-0.2,0.1-1.5,0.8-1.6,0.9c-1.8,1.2-1.8,3.2-1.7,5.1c0,0.9-0.1,1.6-1,2
				c-2.1,1-3,2.7-2.9,4.9c0.1,2.3,1.4,3.8,3.4,4.7c2,0.9,4.2,1.2,6.4,1.6c0.5,0.1,1.1,0,0.9,0.8c-2.3,1.3-4.5,2.9-5.8,5.4
				c-0.8,1.5-1.2,3-0.2,4.6c0.8,1.4,2.2,1.7,3.5,2c0.8,0.2,1.2,0.7,1.1,1.2c-0.2,0.9,0.2,1.6,0.5,2.3c0.8,2,2.5,3,4.6,2.3
				c2.9-1,4.5-3.3,5.8-5.9c0.6-1.2,1.6-3.1,2.1-4.4c0,0-0.2,1.1-0.3,1.5c-0.2,1.4,0.4,2.2,0.7,3.6c0.2,1.2,1.1,3.1,1.8,4
				c1.5,2,3.7,2.9,6.2,2.5c0.9-0.2,2-0.6,2.3-1.8c0.4-1.2,1.2-1.3,2.1-1c2,0.8,3.7-0.5,4.3-2.3c1.1-3.3-0.4-5.9-2.1-8.5
				c-0.5-0.8-1.3-1.4-1.4-2.4c-0.1,0,0-0.1,0-0.1c0,0,1.3,0.1,1.9,0c1-0.1,2,0,3-0.3c1.7-0.5,3.2-1.4,4.5-2.7
				C50.2,29,50.7,26.8,49.4,24.9z"/>
		</g>
	</g>
</g>
<path class="st0" d="M29.7,26.9c1.3,0.3,2.6-0.1,3.8-0.1c1.6,0,3.3-0.1,4.9-0.5c0.3-0.1,0.6-0.2,0.7-0.5c0-0.4-0.2-0.6-0.6-0.8
	c-0.4-0.2-0.8-0.1-1.3-0.1c-0.8,0.1-1.5,0.5-2.4,0.6c-1.9,0.1-3.7,0.4-5.6,0.6c-0.3,0-0.6,0.3-0.7-0.1c-0.1-0.3,0.2-0.4,0.5-0.6
	c2.3-1.2,4.3-2.8,6.4-4.3c0.4-0.3,1.1-0.6,0.6-1.2c-0.4-0.5-1.1-0.5-1.7-0.2c-0.2,0.1-0.4,0.3-0.5,0.5c-1,1.6-2.4,2.9-4,3.8
	c-0.6,0.4-1.5,0.9-1.8,0.6c-0.5-0.6,0.1-1.5,0.3-2.2c0-0.1,0.2-0.2,0.3-0.4c0.7-0.9,1.4-1.9,2.1-2.8c0.5-0.7,0.7-1.4,0.6-2.2
	c0-0.2,0-0.5-0.3-0.6c-0.2,0-0.5-0.1-0.7,0.1c-0.7,0.9-1.6,1.8-1.8,3c-0.1,0.7-0.4,1.4-0.7,2c0,0.5-0.3,0.9-0.6,1.3
	c-0.2,0.3-0.4,0.7-0.8,0.5c-0.3-0.2-0.3-0.6-0.3-1c0.2-2.1-0.2-4.2,0.9-6.1c0.3-0.6,0.1-1.2-0.3-1.6c-0.4-0.2-0.8-0.5-1,0.2
	c-0.2,0.6-0.6,1.3-0.5,1.9c0.5,2.1,0.2,4.2,0.2,6.3c0,0.5-0.2,1.1-0.5,0.8c-0.9-1-2.3-4.4-3-6.3c-0.2-0.6-1-1.1-1.7-0.6
	c-0.6,0.4-0.3,1,0,1.6c0.8,1.3,1.8,2.4,2.6,3.7c0.3,0.5,1,1.8,1.7,2.5c-0.2,0.1-0.3,0.1-0.5,0c-1.8-0.7-2.4-0.6-5.3-2.4
	c-0.7-0.9-1.9-1.2-3.1-1.1c-0.3,0-0.7,0.1-0.9,0.5c-0.1,0.4,0.2,0.6,0.5,0.8c0.6,0.6,1.4,0.7,2.1,1c2,0.6,4,1.3,6,1.9
	c0,0,0.7,0.3,0.8,0.4c0.1,0.1,0,0.2,0,0.2c-0.1,0.3-1.1,0.2-1.1,0.2c-1.9,0.1-4.1,0.7-6.1,0.5c-0.5-0.1-1.1,0.1-1.6,0.4
	c-0.4,0.2-1.1,0.5-1,1c0.1,0.5,0.8,0.5,1.3,0.4c1.4-0.3,2.8-0.5,4.1-0.9c1.2-0.3,2.4-0.6,3.6-0.6c0,0,0.6-0.4,0.9-0.3l0,0.4
	c-0.1,0.2-0.3,0.4-0.5,0.6c-1.3,1-2.7,1.9-4.1,2.9c-0.6,0.4-1.2,0.8-1.8,1.3c-0.4,0.4-0.8,1.1-0.4,1.5c0.4,0.4,1,0.1,1.5-0.3
	c0.6-0.6,1.1-1.2,1.8-1.7c1.3-1.1,2.6-2.2,4-3.3c0.1,0.1,0.2,0.2,0.3,0.2c-1.2,1.9-1.3,4.4-3.1,6c-0.3,0.3-0.5,0.7-0.6,1.1
	c-0.2,0.6-0.7,1.3-0.3,1.8c0.4,0.5,1-0.4,1.5-0.4c1.1-1.5,1-3.3,1.6-4.9c0.4-0.9,0.8-1.8,1.6-2.8c0.2,2.4,0.6,4.4,0.3,6.5
	c-0.2,1.2,0,1.4,1.1,1.4c0.3-1.4,0.2-2.8-0.2-4.2c-0.2-0.8,0.2-1.8-0.2-2.7c0,0,0.1-0.2,0.2-0.2c0.2-0.1,0.4,0,0.5,0.2
	c0.2,0.4,0.4,0.8,0.6,1.1c0.1,0.7,0.5,1.2,0.9,1.7c0.8,1.1,1,2.6,2.3,3.3c0.3,0.2,0.4,1,1,0.4c0.5-0.5,0.4-1-0.1-1.4
	c-0.8-0.6-1.3-1.4-1.8-2.2c-0.9-1.4-1.9-2.8-2.7-4.4c0.4-0.2,0.7,0,1,0.1c1,0.5,2,1,3,1.5c1.6,0.8,3.1,1.9,4.9,2
	c0.2-0.4,0.2-0.7,0-1.1c-0.7-1.3-1.9-1.6-3.2-2c-1.6-0.5-3.4-0.3-4.7-1.7C29.1,27,29.4,26.9,29.7,26.9z"/>
</svg>
