<?xml version="1.0" encoding="utf-8"?>
<!-- Generator: Adobe Illustrator 20.1.0, SVG Export Plug-In . SVG Version: 6.00 Build 0)  -->
<svg version="1.1" id="Layer_1" xmlns="http://www.w3.org/2000/svg" xmlns:xlink="http://www.w3.org/1999/xlink" x="0px" y="0px"
	 width="57.8px" height="56.5px" viewBox="0 0 57.8 56.5" style="enable-background:new 0 0 57.8 56.5;" xml:space="preserve">
<style type="text/css">
	.st0{fill:#CD6666;}
	.st1{fill:#FCF9CE;}
	.st2{fill:#FAFBFC;}
</style>
<g>
	<path class="st0" d="M29.7,54.5c0.8,0.4,2.3,1.8,3.1,2c1.1,0.2,3-1.9,3.3-2.4c0.7-1.2,1.3-2.4,1.9-3.6c1.2-2.5,1.6-5.1,1.1-8.1
		c5.2,2.9,10.1,2.4,14.8,0.2c1.8-0.8,2.2-2.3,1.2-3.9c-0.8-1.3-0.9-2.1,0.8-2.8c1.6-0.6,2.5-2.1,1.5-3.7c-2-3.4-4.3-6.7-8.3-8.1
		c-1.1-0.4-4.5-1-4.5-1s2.2-2.2,2.9-3.4c0.4-0.7,1.5-4.6,1.6-5.2c0.1-2.6,0-5-1.4-7.4c-0.2-0.4-2.7,0.1-3,0.3
		c-0.5,0.2-0.9,0.4-1.3,0c-0.2-0.5-0.5-4.1-1.1-4.6c-0.7-0.6-4.1,0.6-5,0.8c-1.4,0.4-2.7,0.9-3.9,1.8c-0.6,0.5-4.6,4.8-5,5.7
		c-0.2,0.5-0.8,0.1-1-0.3c-0.4-1.2-1.3-3.3-4.6-5.9c-2.2-1.8-4.6-2.5-7.1-2.8c-1.8-0.2-3,0.3-2.9,2.4c0,1.1-0.2,2.2-1.9,1.9
		C10.3,6,10,6,9.5,5.8C8.2,5.4,6.3,6.1,6.2,7.6c-0.5,5,0.9,9.7,4.6,13.5c0.8,0.8,0.5,1.3-0.5,1.4C6,23.2,3.1,25.8,1,29.3
		c-1.5,2.5-1.3,4,1.1,5.4c1.2,0.7,1.3,1.6,0.5,2.7c-0.9,1.4-0.8,2.8,0.8,3.7c4.3,2.3,8.8,3.2,13.4,1.3c1-0.4,1.3-0.2,1.3,0.8
		c-0.1,2.6,0.4,5,1.6,7.3c0.3,0.6,1.4,3.5,2.2,4.4c0-0.1,2.2,1,3.6,1.1C26.3,56.1,28.9,54.1,29.7,54.5z M44.6,25.7
		c3.4,0.2,6.2,1.4,7.9,4.1c0.6,0.7,1,1.2,1.4,1.7c1.1,1.2,1.2,2-0.7,2.5c-2.1,0.6-2.4,1.5-1.6,3.6c1.1,2.8,1,2.7-1.9,3.5
		c-6.3,1.8-11.3-1.6-14.9-6.9c-0.8-1.1-1.6-2.2-2.4-3.3c-1-1.5-0.7-2.4,1-2.9C37.1,27,40.6,25.5,44.6,25.7z M38.6,5.6
		c1.4-0.3,2.2,0.1,2.2,1.5c0.2,2.3,1,3.4,3.5,2.7c1.6-0.4,2.2,0.3,2.3,1.9c0.3,5.6-1.4,8.6-6.8,11.4c-2.7,1.4-5.6,2.3-8.6,2.8
		c-0.6,0.1-1.4,0.4-1.5-0.6c-0.6-5.5-1.1-11,2.4-15.8C32.5,8.9,33,8.6,33.6,8C35.1,7.1,36.7,6,38.6,5.6z M11.7,18.3
		c-1.8-2.3-2.4-5.2-2.4-8.2c0-1.3,0.7-1.9,2-1.6c2.2,0.5,3.7,0,3.8-2.6c0.1-1.6,0.9-1.8,2.4-1.4c6.5,2.2,8.2,4.9,9.2,11.6
		c0.3,2.4,0.4,4.9,0.1,7.4c-0.1,0.9-0.3,1.6-1.4,1.4C20.3,23.7,15.5,22.4,11.7,18.3z M15.6,40.1c-3.4,1.4-6.7,0.7-9.8-0.8
		c-1.1-0.5-0.3-1.4-0.1-2.1c1.2-2.9,1.2-3-1.5-4.3c-1.1-0.5-1.3-1.1-0.8-2.2c0.7-1.4,1.7-2.5,2.8-3.2c3.1-2.9,6.5-3.1,10.1-2.3
		c2.7,0.6,5.2,1.5,7.8,2.5c1.2,0.5,1.9,1.4,1.1,2.5C22.5,34,20.1,38.2,15.6,40.1z M26.8,52.4c-1.2,1.1-2,0.7-2.9-0.2
		c-3.7-3.8-4-11.1-0.5-15.1c1.2-1.4,2.1-2.9,3.2-4.4c1.9-2.5,2-2.6,4.3,0.2c2,3.4,5.3,6.4,5.8,11.2c0.3,3.6-1.3,6.2-3.3,8.8
		c-0.7,0.9-1.4,0.2-2-0.4C29.1,50.4,29,50.3,26.8,52.4z"/>
	<path class="st1" d="M52.5,29.8c0.6,0.7,1,1.2,1.4,1.7c1.1,1.2,1.2,2-0.7,2.5c-2.1,0.6-2.4,1.5-1.6,3.6c1.1,2.8,1,2.7-1.9,3.5
		c-6.3,1.8-11.3-1.6-14.9-6.9c-0.8-1.1-1.6-2.2-2.4-3.3c-1-1.5-0.7-2.4,1-2.9c3.6-1.1,7.2-2.5,11.1-2.3C48,25.9,50.7,27.1,52.5,29.8
		z"/>
	<path class="st1" d="M33.6,8c1.5-1,3.1-2,5.1-2.5c1.4-0.3,2.2,0.1,2.2,1.5c0.2,2.3,1,3.4,3.5,2.7c1.6-0.4,2.2,0.3,2.3,1.9
		c0.3,5.6-1.4,8.6-6.8,11.4c-2.7,1.4-5.6,2.3-8.6,2.8c-0.6,0.1-1.4,0.4-1.5-0.6c-0.6-5.5-1.1-11,2.4-15.8C32.5,8.9,33,8.6,33.6,8z"
		/>
	<path class="st1" d="M6.2,27.5c3.1-2.9,6.5-3.1,10.1-2.3c2.7,0.6,5.2,1.5,7.8,2.5c1.2,0.5,1.9,1.4,1.1,2.5c-2.7,3.8-5.1,8-9.7,9.9
		c-3.4,1.4-6.7,0.7-9.8-0.8c-1.1-0.5-0.3-1.4-0.1-2.1c1.2-2.9,1.2-3-1.5-4.3c-1.1-0.5-1.3-1.1-0.8-2.2C4.1,29.4,5.1,28.2,6.2,27.5z"
		/>
	<path class="st1" d="M11.7,18.3c-1.8-2.3-2.4-5.2-2.4-8.2c0-1.3,0.7-1.9,2-1.6c2.2,0.5,3.7,0,3.8-2.6c0.1-1.6,0.9-1.8,2.4-1.4
		c6.5,2.2,8.2,4.9,9.2,11.6c0.3,2.4,0.4,4.9,0.1,7.4c-0.1,0.9-0.3,1.6-1.4,1.4C20.3,23.7,15.5,22.4,11.7,18.3z"/>
	<path class="st1" d="M30.8,33c2,3.4,5.3,6.4,5.8,11.2c0.3,3.6-1.3,6.2-3.3,8.8c-0.7,0.9-1.4,0.2-2-0.4c-2.2-2.2-2.2-2.2-4.5-0.2
		c-1.2,1.1-2,0.7-2.9-0.2c-3.7-3.8-4-11.1-0.5-15.1c1.2-1.4,2.1-2.9,3.2-4.4C28.5,30.2,28.5,30.2,30.8,33z"/>
	<path class="st2" d="M30.8-14.3"/>
</g>
</svg>
